<?xml version="1.0" encoding="UTF-8" standalone="no"?>
<!-- Created with Inkscape (http://www.inkscape.org/) -->
<svg
   xmlns:dc="http://purl.org/dc/elements/1.1/"
   xmlns:cc="http://creativecommons.org/ns#"
   xmlns:rdf="http://www.w3.org/1999/02/22-rdf-syntax-ns#"
   xmlns:svg="http://www.w3.org/2000/svg"
   xmlns="http://www.w3.org/2000/svg"
   xmlns:sodipodi="http://sodipodi.sourceforge.net/DTD/sodipodi-0.dtd"
   xmlns:inkscape="http://www.inkscape.org/namespaces/inkscape"
   width="744.09448819"
   height="1052.3622047"
   id="svg6930"
   sodipodi:version="0.32"
   inkscape:version="0.46"
   inkscape:export-filename="/home/andrew/Projects/deluge/trunk/deluge/data/pixmaps/checking16.png"
   inkscape:export-xdpi="1.7060417"
   inkscape:export-ydpi="1.7060417"
   sodipodi:docname="checking.svg"
   inkscape:output_extension="org.inkscape.output.svg.inkscape">
  <defs
     id="defs6932">
    <inkscape:perspective
       sodipodi:type="inkscape:persp3d"
       inkscape:vp_x="0 : 526.18109 : 1"
       inkscape:vp_y="0 : 1000 : 0"
       inkscape:vp_z="744.09448 : 526.18109 : 1"
       inkscape:persp3d-origin="372.04724 : 350.78739 : 1"
       id="perspective6938" />
  </defs>
  <sodipodi:namedview
     id="base"
     pagecolor="#ffffff"
     bordercolor="#666666"
     borderopacity="1.0"
     gridtolerance="10000"
     guidetolerance="10"
     objecttolerance="10"
     inkscape:pageopacity="0.0"
     inkscape:pageshadow="2"
     inkscape:zoom="0.7"
     inkscape:cx="284.02575"
     inkscape:cy="416.27643"
     inkscape:document-units="px"
     inkscape:current-layer="layer1"
     showgrid="false"
     inkscape:window-width="686"
     inkscape:window-height="711"
     inkscape:window-x="1387"
     inkscape:window-y="128" />
  <metadata
     id="metadata6935">
    <rdf:RDF>
      <cc:Work
         rdf:about="">
        <dc:format>image/svg+xml</dc:format>
        <dc:type
           rdf:resource="http://purl.org/dc/dcmitype/StillImage" />
      </cc:Work>
    </rdf:RDF>
  </metadata>
  <g
     inkscape:label="Layer 1"
     inkscape:groupmode="layer"
     id="layer1">
    <path
       style="fill:#b3b3b3;fill-opacity:1;fill-rule:evenodd;stroke:none;stroke-width:0.07523891000000001px;stroke-linecap:butt;stroke-linejoin:miter;stroke-opacity:1"
       d="M 335.10794,116.43168 L 610.53935,447.76408 C 809.45408,669.41324 696.25675,938.85368 393.35753,959.46028 C -32.813273,970.60316 -9.7709676,623.52458 107.82928,464.31364 L 335.10794,116.43168 z"
       id="path2069"
       sodipodi:nodetypes="ccccc"
       inkscape:export-filename="/home/andrew/Projects/deluge/trunk/deluge/data/pixmaps/checking16.png"
       inkscape:export-xdpi="1.7060417"
       inkscape:export-ydpi="1.7060417" />
    <path
       style="fill:none;fill-opacity:1;fill-rule:evenodd;stroke:#ffffff;stroke-width:21.67123984999999919;stroke-linecap:butt;stroke-linejoin:miter;stroke-miterlimit:4;stroke-dasharray:none;stroke-opacity:0.36612022000000000"
       d="M 337.67292,165.87552 L 585.22638,464.67366 C 773.96211,684.57988 653.37942,910.02774 383.88559,930.97978 C 4.1291863,940.68143 29.040179,639.21796 125.2355,490.1649 L 337.67292,165.87552 z"
       id="path2071"
       sodipodi:nodetypes="ccccc"
       inkscape:export-filename="/home/andrew/Projects/deluge/trunk/deluge/data/pixmaps/seeding16.png"
       inkscape:export-xdpi="1.7060417"
       inkscape:export-ydpi="1.7060417" />
    <path
       style="fill:#cfcfcf;fill-opacity:1;stroke:#000000;stroke-width:11.50416565;stroke-linecap:round;stroke-linejoin:round;stroke-miterlimit:4;stroke-dasharray:none;stroke-opacity:1"
       d="M 170.93275,447.12091 C 174.01359,451.92804 181.6932,659.85017 179.71907,656.9136 C 178.40947,654.12718 411.7223,649.25335 412.30092,648.76646 C 411.08134,648.85003 338.31478,584.63588 338.93986,585.53435 C 410.72174,567.77973 462.65633,588.73801 481.03861,645.01437 C 484.19544,690.33553 466.3409,711.71891 434.77285,736.14895 C 385.89389,754.17146 322.59241,745.84878 312.37017,673.09575 C 312.32389,674.48492 156.52907,675.28833 153.0572,676.51233 C 202.03372,799.5504 269.9646,882.62913 421.73005,870.01325 C 463.0283,867.02946 568.27041,836.89042 606.41655,717.64626 C 627.84208,623.51263 596.80367,549.4096 547.34944,496.26853 C 457.7753,416.4389 296.11292,421.8444 245.11698,507.64417 C 247.55313,508.23771 173.58263,449.35852 170.93275,447.12091 z"
       id="path3485"
       sodipodi:nodetypes="ccccccccccccc" />
  </g>
</svg>
