/* XPM */
static char * deluge_xpm[] = {
"48 48 741 2",
"  	c None",
". 	c #707D97",
"+ 	c #8791A8",
"@ 	c #8590A6",
"# 	c #808BA1",
"$ 	c #AAB2C1",
"% 	c #ACB3C2",
"& 	c #818CA3",
"* 	c #727D98",
"= 	c #959EB1",
"- 	c #B6BCC9",
"; 	c #B8BECB",
"> 	c #9EA6B8",
", 	c #7B879F",
"' 	c #838EA4",
") 	c #AEB5C3",
"! 	c #96A0B3",
"~ 	c #97A1B4",
"{ 	c #B3BCCA",
"] 	c #909CB1",
"^ 	c #73819D",
"/ 	c #707D98",
"( 	c #9DA8BA",
"_ 	c #9BA6BA",
": 	c #8594AC",
"< 	c #8997AF",
"[ 	c #9BA8BC",
"} 	c #ADB7C9",
"| 	c #8394AE",
"1 	c #627492",
"2 	c #8997AE",
"3 	c #A0ACC0",
"4 	c #7E90AB",
"5 	c #8193AE",
"6 	c #8496B1",
"7 	c #8497B2",
"8 	c #A0AFC5",
"9 	c #A1B0C5",
"0 	c #798FAD",
"a 	c #586D8E",
"b 	c #7285A3",
"c 	c #A0AEC3",
"d 	c #7D91AE",
"e 	c #788EAD",
"f 	c #7C92B0",
"g 	c #7F96B3",
"h 	c #8097B5",
"i 	c #8198B7",
"j 	c #A4B4CB",
"k 	c #93A6C1",
"l 	c #708AAE",
"m 	c #5E7799",
"n 	c #93A4BE",
"o 	c #8398B6",
"p 	c #6F89AC",
"q 	c #748EB0",
"r 	c #7792B4",
"s 	c #7B95B6",
"t 	c #7B96B8",
"u 	c #7B96B9",
"v 	c #819BBC",
"w 	c #A5B8CF",
"x 	c #819CBC",
"y 	c #6786AD",
"z 	c #536F98",
"A 	c #7E95B4",
"B 	c #8DA2BF",
"C 	c #6785AB",
"D 	c #6B8AB0",
"E 	c #708EB5",
"F 	c #7392B8",
"G 	c #7595BA",
"H 	c #7796BC",
"I 	c #7596BC",
"J 	c #84A0C2",
"K 	c #A1B7D1",
"L 	c #7293B9",
"M 	c #476895",
"N 	c #6483A9",
"O 	c #91A8C5",
"P 	c #6486B0",
"Q 	c #6286B1",
"R 	c #678AB5",
"S 	c #6B8FB8",
"T 	c #6E92BC",
"U 	c #7195BE",
"V 	c #7397C0",
"W 	c #7296C0",
"X 	c #7094BF",
"Y 	c #8AA9CA",
"Z 	c #95B0CE",
"` 	c #668CB7",
" .	c #4E73A1",
"..	c #89A3C3",
"+.	c #6C8EB7",
"@.	c #537AA9",
"#.	c #5277A5",
"$.	c #5578A6",
"%.	c #597CA9",
"&.	c #5D81AD",
"*.	c #678CB8",
"=.	c #6F96C1",
"-.	c #7198C3",
";.	c #6E96C2",
">.	c #6D95C1",
",.	c #92B0D1",
"'.	c #86A7CB",
").	c #5E88B8",
"!.	c #416B9F",
"~.	c #7193BA",
"{.	c #6685AE",
"].	c #254A7F",
"^.	c #1F4377",
"/.	c #1F4478",
"(.	c #26497B",
"_.	c #345584",
":.	c #46648F",
"<.	c #496791",
"[.	c #4E6B94",
"}.	c #5D7DA8",
"|.	c #6C91BC",
"1.	c #7097C4",
"2.	c #6D95C2",
"3.	c #6F97C3",
"4.	c #97B3D4",
"5.	c #759BC4",
"6.	c #5885B7",
"7.	c #3E6CA2",
"8.	c #5179A7",
"9.	c #6781A5",
"0.	c #204478",
"a.	c #1B4075",
"b.	c #1D4176",
"c.	c #214578",
"d.	c #24477A",
"e.	c #2C4E7F",
"f.	c #46648E",
"g.	c #506C94",
"h.	c #4F6B94",
"i.	c #5C7FA9",
"j.	c #6B94C2",
"k.	c #749BC5",
"l.	c #99B4D5",
"m.	c #6690BF",
"n.	c #3F6EA7",
"o.	c #386196",
"p.	c #6A82A5",
"q.	c #305282",
"r.	c #25487A",
"s.	c #2B4D7E",
"t.	c #2F5181",
"u.	c #345483",
"v.	c #375785",
"w.	c #3A5986",
"x.	c #577197",
"y.	c #567198",
"z.	c #526E96",
"A.	c #506F98",
"B.	c #668EBB",
"C.	c #6893C1",
"D.	c #7EA1C9",
"E.	c #90AFD1",
"F.	c #5987BA",
"G.	c #2B568D",
"H.	c #5C779D",
"I.	c #486590",
"J.	c #375685",
"K.	c #405E8B",
"L.	c #48658E",
"M.	c #4B6791",
"N.	c #4D6991",
"O.	c #4C6890",
"P.	c #4A6690",
"Q.	c #5C759A",
"R.	c #5E779B",
"S.	c #5A7599",
"T.	c #557096",
"U.	c #506E96",
"V.	c #6087B4",
"W.	c #6590C0",
"X.	c #86A7CD",
"Y.	c #82A5CA",
"Z.	c #4F7EB5",
"`.	c #2E588F",
" +	c #45638E",
".+	c #5F799E",
"++	c #26487B",
"@+	c #355584",
"#+	c #44628D",
"$+	c #516D93",
"%+	c #5A7498",
"&+	c #60789C",
"*+	c #647C9F",
"=+	c #657D9E",
"-+	c #5D769A",
";+	c #587297",
">+	c #597399",
",+	c #5D779B",
"'+	c #657DA0",
")+	c #627B9E",
"!+	c #5D779C",
"~+	c #5E85B4",
"{+	c #628EBF",
"]+	c #8DACD0",
"^+	c #4679B0",
"/+	c #325F95",
"(+	c #2E5080",
"_+	c #6B83A5",
":+	c #325383",
"<+	c #395886",
"[+	c #4B6790",
"}+	c #687FA0",
"|+	c #6F85A4",
"1+	c #667DA0",
"2+	c #567197",
"3+	c #6280A7",
"4+	c #6E91B8",
"5+	c #7299C4",
"6+	c #7299C5",
"7+	c #6C93BF",
"8+	c #6F8FB6",
"9+	c #6F88AB",
"0+	c #667EA0",
"a+	c #5F799C",
"b+	c #577297",
"c+	c #4D6C93",
"d+	c #5A85B6",
"e+	c #638EBF",
"f+	c #8CACCF",
"g+	c #5A87BA",
"h+	c #4476AF",
"i+	c #21467A",
"j+	c #637DA1",
"k+	c #44628E",
"l+	c #385785",
"m+	c #4C6990",
"n+	c #5D779A",
"o+	c #6D83A4",
"p+	c #7489A7",
"q+	c #60789B",
"r+	c #6781A4",
"s+	c #8FACCC",
"t+	c #84A8D0",
"u+	c #7CA4CF",
"v+	c #7BA3CE",
"w+	c #79A2CD",
"x+	c #79A1CD",
"y+	c #7CA3CD",
"z+	c #7595BC",
"A+	c #607A9C",
"B+	c #567096",
"C+	c #4C6C97",
"D+	c #5887BA",
"E+	c #6A94C2",
"F+	c #88A9CE",
"G+	c #4D7EB4",
"H+	c #285085",
"I+	c #5A749B",
"J+	c #46638D",
"K+	c #5C7699",
"L+	c #778CA8",
"M+	c #647D9F",
"N+	c #758CAC",
"O+	c #A3BCD8",
"P+	c #88ACD4",
"Q+	c #84AAD3",
"R+	c #83A9D3",
"S+	c #80A7D1",
"T+	c #7EA5D0",
"U+	c #7EA5CF",
"V+	c #7AA1CD",
"W+	c #6B85A7",
"X+	c #5E779A",
"Y+	c #536E95",
"Z+	c #4F75A4",
"`+	c #5685BA",
" @	c #779DC7",
".@	c #799DC7",
"+@	c #4175AE",
"@@	c #3A5A87",
"#@	c #546E96",
"$@	c #6A81A1",
"%@	c #7A8FAA",
"&@	c #6880A0",
"*@	c #7288A8",
"=@	c #AEC4DA",
"-@	c #95B5D9",
";@	c #8CB0D8",
">@	c #8CB1D8",
",@	c #8BB0D7",
"'@	c #8AAED6",
")@	c #87ADD5",
"!@	c #7CA3CF",
"~@	c #779FCC",
"{@	c #6A85A6",
"]@	c #526F96",
"^@	c #5784B8",
"/@	c #5484B8",
"(@	c #83A5CC",
"_@	c #5C88BA",
":@	c #3F71A9",
"<@	c #284F84",
"[@	c #536F97",
"}@	c #294B7C",
"|@	c #45628D",
"1@	c #5E789B",
"2@	c #758AA7",
"3@	c #7389A7",
"4@	c #6D84A4",
"5@	c #9DB1CA",
"6@	c #AFC7E0",
"7@	c #93B6DC",
"8@	c #94B7DC",
"9@	c #93B6DB",
"0@	c #90B4DA",
"a@	c #8DB1D8",
"b@	c #85ABD4",
"c@	c #759ECB",
"d@	c #7096C1",
"e@	c #6881A1",
"f@	c #5B7599",
"g@	c #5379A6",
"h@	c #5383B8",
"i@	c #608CBD",
"j@	c #81A3CA",
"k@	c #4173AB",
"l@	c #1F467B",
"m@	c #647DA1",
"n@	c #305181",
"o@	c #7B8FAA",
"p@	c #7C91AD",
"q@	c #C0D1E3",
"r@	c #A4C2E0",
"s@	c #9CBDE0",
"t@	c #9DBEE1",
"u@	c #9BBDE0",
"v@	c #9ABBDF",
"w@	c #97B9DE",
"x@	c #8FB3D9",
"y@	c #8AAFD7",
"z@	c #7FA6D0",
"A@	c #78A1CD",
"B@	c #719BC9",
"C@	c #698BB4",
"D@	c #627A9E",
"E@	c #55739C",
"F@	c #5584B9",
"G@	c #4D7EB5",
"H@	c #799EC6",
"I@	c #3D6CA2",
"J@	c #2B4D7F",
"K@	c #6780A3",
"L@	c #1C4176",
"M@	c #516D94",
"N@	c #6B82A2",
"O@	c #778BA9",
"P@	c #95A7C0",
"Q@	c #C5D7E8",
"R@	c #A3C3E5",
"S@	c #A5C4E5",
"T@	c #A5C4E6",
"U@	c #A4C3E5",
"V@	c #A3C3E4",
"W@	c #A0C0E3",
"X@	c #99BADF",
"Y@	c #8EB2D9",
"Z@	c #88ADD5",
"`@	c #82A8D2",
" #	c #749DCA",
".#	c #6D97C6",
"+#	c #6581A5",
"@#	c #5A769C",
"##	c #5585BA",
"$#	c #779BC3",
"%#	c #3E6BA1",
"&#	c #42618D",
"*#	c #506C95",
"=#	c #365785",
"-#	c #546E95",
";#	c #6E84A4",
">#	c #7086A5",
",#	c #AABBCF",
"'#	c #C2D6E9",
")#	c #ACCAE9",
"!#	c #ADCBEA",
"~#	c #ADCAEA",
"{#	c #ABC9E9",
"]#	c #A9C8E8",
"^#	c #A6C5E6",
"/#	c #A2C2E4",
"(#	c #92B5DB",
"_#	c #8BAFD7",
":#	c #7DA4CF",
"<#	c #6D98C7",
"[#	c #6289B6",
"}#	c #59789F",
"|#	c #4679B2",
"1#	c #81A1C7",
"2#	c #4973A6",
"3#	c #254B80",
"4#	c #3F5E8B",
"5#	c #365685",
"6#	c #557095",
"7#	c #6F86A5",
"8#	c #B6C7D9",
"9#	c #C4D7EC",
"0#	c #B5D1EE",
"a#	c #B2CFED",
"b#	c #AFCDEB",
"c#	c #A7C6E6",
"d#	c #A1C1E3",
"e#	c #9BBCE0",
"f#	c #86ABD4",
"g#	c #769FCC",
"h#	c #6E99C7",
"i#	c #6692C3",
"j#	c #5E8CBE",
"k#	c #4477B0",
"l#	c #6F95BF",
"m#	c #5B81AF",
"n#	c #3D6497",
"o#	c #22487B",
"p#	c #617A9F",
"q#	c #325382",
"r#	c #516D92",
"s#	c #6C82A3",
"t#	c #6E85A4",
"u#	c #BAC9DB",
"v#	c #C9DCF1",
"w#	c #BDD8F3",
"x#	c #BCD6F2",
"y#	c #B9D4F0",
"z#	c #B0CDEC",
"A#	c #AAC9E8",
"B#	c #96B9DD",
"C#	c #87ACD5",
"D#	c #5D8BBE",
"E#	c #4C7EB4",
"F#	c #5F88B7",
"G#	c #6A8CB4",
"H#	c #3C6395",
"I#	c #21467B",
"J#	c #284A7D",
"K#	c #2D4F7F",
"L#	c #4C6991",
"M#	c #6E84A3",
"N#	c #B5C5D8",
"O#	c #D0E2F3",
"P#	c #C5DEF7",
"Q#	c #C2DCF6",
"R#	c #BED9F3",
"S#	c #BAD5F1",
"T#	c #B4D0EE",
"U#	c #9FBFE2",
"V#	c #6591C2",
"W#	c #5C8ABD",
"X#	c #5483B9",
"Y#	c #4A7CB4",
"Z#	c #4275AF",
"`#	c #5681B1",
" $	c #7291B7",
".$	c #3B6293",
"+$	c #1E4378",
"@$	c #6E86A7",
"#$	c #23477A",
"$$	c #45628C",
"%$	c #7287A5",
"&$	c #A7B8CD",
"*$	c #D7E7F6",
"=$	c #CDE4FC",
"-$	c #CCE3FB",
";$	c #C8E0F9",
">$	c #C3DCF6",
",$	c #B6D2EF",
"'$	c #A7C6E7",
")$	c #6C97C6",
"!$	c #6490C1",
"~$	c #5A89BC",
"{$	c #5282B8",
"]$	c #497BB3",
"^$	c #4074AE",
"/$	c #517BAD",
"($	c #7895B8",
"_$	c #3B6090",
":$	c #25487B",
"<$	c #385885",
"[$	c #6F85A5",
"}$	c #627A9C",
"|$	c #8599B5",
"1$	c #DEEBF7",
"2$	c #D3E9FF",
"3$	c #D1E8FE",
"4$	c #CDE4FB",
"5$	c #C6DFF8",
"6$	c #C0D9F4",
"7$	c #B8D3F0",
"8$	c #A8C7E7",
"9$	c #9FC0E2",
"0$	c #6B96C5",
"a$	c #628FC0",
"b$	c #5988BB",
"c$	c #5080B6",
"d$	c #4679B1",
"e$	c #3F72AB",
"f$	c #527BAB",
"g$	c #7794B6",
"h$	c #3B5E8E",
"i$	c #2D4E80",
"j$	c #49668F",
"k$	c #647C9D",
"l$	c #6B82A3",
"m$	c #657D9F",
"n$	c #C8D6E5",
"o$	c #D5E9FD",
"p$	c #D0E6FD",
"q$	c #C9E1F9",
"r$	c #C1DAF5",
"s$	c #9EBFE2",
"t$	c #96B8DD",
"u$	c #6894C4",
"v$	c #5F8DBF",
"w$	c #3F70A8",
"x$	c #577DAB",
"y$	c #718DB1",
"z$	c #3A5C8A",
"A$	c #22477A",
"B$	c #335484",
"C$	c #234679",
"D$	c #3A5987",
"E$	c #8499B5",
"F$	c #D9E9F8",
"G$	c #C0DAF4",
"H$	c #AECCEB",
"I$	c #81A8D2",
"J$	c #78A0CD",
"K$	c #6F99C7",
"L$	c #6592C2",
"M$	c #5D8ABD",
"N$	c #5484B9",
"O$	c #4B7DB4",
"P$	c #3F6EA4",
"Q$	c #6284AE",
"R$	c #6481A8",
"S$	c #1E4376",
"T$	c #294C7E",
"U$	c #5C769A",
"V$	c #7187A5",
"W$	c #667D9F",
"X$	c #9BAEC6",
"Y$	c #D8EAFC",
"Z$	c #D0E7FD",
"`$	c #C8E0F8",
" %	c #769FCB",
".%	c #6E98C7",
"+%	c #6793C2",
"@%	c #608DBE",
"#%	c #5785B9",
"$%	c #4677AE",
"%%	c #436FA4",
"&%	c #7692B5",
"*%	c #53729A",
"=%	c #385783",
"-%	c #395987",
";%	c #315281",
">%	c #60799C",
",%	c #7288A6",
"'%	c #6D84A3",
")%	c #94A8C1",
"!%	c #CEE3F7",
"~%	c #C4DDF7",
"{%	c #BBD6F2",
"]%	c #B2CEEC",
"^%	c #A9C7E7",
"/%	c #85AAD4",
"(%	c #78A0CC",
"_%	c #7199C7",
":%	c #6A94C3",
"<%	c #618DBE",
"[%	c #5986B9",
"}%	c #4F7FB4",
"|%	c #4977AB",
"1%	c #4E75A4",
"2%	c #849CBB",
"3%	c #41618D",
"4%	c #39537F",
"5%	c #204377",
"6%	c #6880A4",
"7%	c #335483",
"8%	c #5F789C",
"9%	c #778CA9",
"0%	c #7F94B1",
"a%	c #ABC2DC",
"b%	c #B7D3EE",
"c%	c #AECBEA",
"d%	c #85AAD3",
"e%	c #7FA5CF",
"f%	c #78A0CB",
"g%	c #729AC7",
"h%	c #6B95C3",
"i%	c #638EBE",
"j%	c #507FB3",
"k%	c #4D78A9",
"l%	c #6C8BB1",
"m%	c #6A86A9",
"n%	c #3E5D87",
"o%	c #1C4071",
"p%	c #6980A1",
"q%	c #758AA9",
"r%	c #798DAA",
"s%	c #839AB7",
"t%	c #97B0CF",
"u%	c #9EBFE0",
"v%	c #98BADE",
"w%	c #91B4DA",
"x%	c #8CAFD6",
"y%	c #85AAD2",
"z%	c #7AA0CB",
"A%	c #749BC7",
"B%	c #6C95C3",
"C%	c #638FBE",
"D%	c #5A87B9",
"E%	c #537FB1",
"F%	c #587EAA",
"G%	c #859DBC",
"H%	c #4B6993",
"I%	c #3E587E",
"J%	c #214579",
"K%	c #667FA2",
"L%	c #1E4277",
"M%	c #3F5D89",
"N%	c #506C92",
"O%	c #687FA1",
"P%	c #798EAE",
"Q%	c #7E99BB",
"R%	c #85A6CA",
"S%	c #8AADD4",
"T%	c #85A9D1",
"U%	c #80A5CE",
"V%	c #7BA0CA",
"W%	c #749CC7",
"X%	c #6D96C3",
"Y%	c #638DBE",
"Z%	c #5985B7",
"`%	c #577EAD",
" &	c #6581A6",
".&	c #42608A",
"+&	c #1C3F6F",
"@&	c #375786",
"#&	c #42608B",
"$&	c #4D6990",
"%&	c #5F799B",
"&&	c #6A82A2",
"*&	c #6C83A4",
"=&	c #6D84A5",
"-&	c #708BB0",
";&	c #799DC6",
">&	c #769CC7",
",&	c #608BBC",
"'&	c #5982B3",
")&	c #7F9BBE",
"!&	c #7993B4",
"~&	c #46658F",
"{&	c #3A5173",
"]&	c #637CA0",
"^&	c #284B7D",
"/&	c #24487A",
"(&	c #3A5A86",
"_&	c #47638E",
":&	c #4F6B93",
"<&	c #556F97",
"[&	c #577298",
"}&	c #587298",
"|&	c #587399",
"1&	c #556F96",
"2&	c #51719C",
"3&	c #557AA9",
"4&	c #5D86B5",
"5&	c #83A0C2",
"6&	c #7E99B9",
"7&	c #3E587F",
"8&	c #132B4E",
"9&	c #1C4075",
"0&	c #3D5C8A",
"a&	c #23467A",
"b&	c #3B5B88",
"c&	c #3F5D8A",
"d&	c #41608C",
"e&	c #42608D",
"f&	c #43628D",
"g&	c #405F8B",
"h&	c #547097",
"i&	c #798FAE",
"j&	c #6984A8",
"k&	c #496C97",
"l&	c #405B81",
"m&	c #102545",
"n&	c #1E4176",
"o&	c #627BA0",
"p&	c #3A5A88",
"q&	c #2D4F80",
"r&	c #3C5C89",
"s&	c #6F87A8",
"t&	c #758BAB",
"u&	c #4A6791",
"v&	c #2A4D7E",
"w&	c #304F7A",
"x&	c #1F3F6A",
"y&	c #6B83A6",
"z&	c #577299",
"A&	c #2D5080",
"B&	c #2E4F80",
"C&	c #315282",
"D&	c #375886",
"E&	c #7288A9",
"F&	c #516D96",
"G&	c #2B4E80",
"H&	c #2A466A",
"I&	c #25426C",
"J&	c #26497C",
"K&	c #5A759B",
"L&	c #6981A4",
"M&	c #738AAA",
"N&	c #758CAB",
"O&	c #778EAD",
"P&	c #788EAE",
"Q&	c #7088A9",
"R&	c #657EA2",
"S&	c #516E96",
"T&	c #3C5B89",
"U&	c #2C5182",
"V&	c #2C4B73",
"W&	c #2B4B73",
"X&	c #2F5180",
"Y&	c #274B7D",
"Z&	c #1D4377",
"`&	c #224679",
" *	c #294B7D",
".*	c #284B7E",
"+*	c #2E5283",
"@*	c #305485",
"#*	c #2D4F7B",
"                                                                                                ",
"                                              .                                                 ",
"                                              + @                                               ",
"                                            # $ % &                                             ",
"                                          * = - ; > ,                                           ",
"                                          ' ) ! ~ { ] ^                                         ",
"                                        / ( _ : < [ } |                                         ",
"                                      1 2 3 4 5 6 7 8 9 0                                       ",
"                                    a b c d e f g h i j k l                                     ",
"                                    m n o p q r s t u v w x y                                   ",
"                                  z A B C D E F G H H I J K L                                   ",
"                                M N O P Q R S T U V V W X Y Z `                                 ",
"                                 ...+.@.#.$.%.&.*.=.-.-.;.>.,.'.).                              ",
"                              !.~.{.].^./.(._.:.<.[.}.|.1.2.3.4.5.6.                            ",
"                            7.8.9.0.a.a.b.c.d.e.f.g.h.[.i.;.j.k.l.m.                            ",
"                          n.o.p.q.a.^.r.s.t.u.v.w.g.x.y.z.A.B.C.D.E.F.                          ",
"                          G.H.I.b.s.J.K.L.M.N.O.P.P.Q.R.S.T.U.V.W.X.Y.Z.                        ",
"                        `. +.+++@+#+$+%+&+*+=+-+;+>+,+'+)+!+x.h.~+{+]+;.^+                      ",
"                      /+(+_+:+<+[+>+}+|+1+2+3+4+5+6+7+8+9+0+a+b+c+d+e+f+g+h+                    ",
"                      i+j+k+l+m+n+o+p+q+r+s+t+u+u+v+w+x+y+z+_+A+B+C+D+E+F+G+                    ",
"                    H+I.I+(+J+K+|+L+M+N+O+P+Q+Q+Q+R+S+T+U+V+5.W+X+Y+Z+`+ @.@+@                  ",
"                    d._+t.@@#@$@%@&@*@=@-@;@>@>@,@'@)@Q+S+!@~@6+{@X+]@^@/@(@_@:@                ",
"                  <@k+[@}@|@1@2@3@4@5@6@7@8@8@8@9@0@a@'@b@S+v+c@d@e@f@g@h@i@j@k@                ",
"                  l@m@q.n@N.0+o@$@p@q@r@s@t@t@u@v@w@7@x@y@Q+z@A@B@C@D@E@F@G@H@d+I@              ",
"                  J@K@L@_.M@N@O@o+P@Q@R@S@T@U@V@W@t@X@7@Y@Z@`@v+ #.#+#@###G@_@$#%#              ",
"                  &#*#L@=#-#;#3@>#,#'#)#!#~#{#]#^#/#t@w@(#_#Q+:#c@<#[#}#`+G@|#1#2#              ",
"                3#[@4#b.5#6#;#7#>#8#9#0#0#0#a#b#{#c#d#e#8@a@f#T+g#h#i#j###G@k#l#m#n#            ",
"                o#p#n@L@q#r#s#>#t#u#v#w#w#x#y#0#z#A#U@t@B#x@C#z@~@h#i#D#F@E#k#F#G#H#            ",
"                I#p.J#a.K#L#}+M#N@N#O#P#P#Q#R#S#T#!#^#U#w@x@)@z@g#<#V#W#X#Y#Z#`# $.$            ",
"                +$@$#$a.(.$$a+%$=+&$*$=$-$;$>$w#,$b#'$W@w@x@C#T+c@)$!$~${$]$^$/$($_$            ",
"                /.@$:$a.c.<$T.[$}$|$1$2$3$4$5$6$7$z#8$9$w@Y@f#u+ #0$a$b$c$d$e$f$g$h$            ",
"                i+p.J#a.L@i$j$k$l$m$n$o$2$p$q$r$y#z#'$s$t$>@Q+v+B@u$v$`+G@k#w$x$y$z$            ",
"                A$.+B$a.a.C$D$T.l$=+E$F$2$3$q$G$7$H$^#t@7@y@I$J$K$L$M$N$O$Z#P$Q$R$@@            ",
"                S$h.&#a.a.a.T$$$U$V$W$X$Y$Z$`$R#0#)#V@v@0@)@T+ %.%+%@%#%G+$%%%&%*%=%            ",
"                  -%I+a.a.a./.;%j$>%,%'%)%!%~%{%]%^%9$B#>@/%T+(%_%:%<%[%}%|%1%2%3%4%            ",
"                  5%6%:$a.a.a.c.7%[+8%V$9%0%a%b%c%U@e#9@,@d%e%f%g%h%i%g+j%k%l%m%n%              ",
"                  o%I.<.a.a.a.a.0.q#f.>+p%q%r%s%t%u%v%w%x%y%e%z%A%B%C%D%E%F%G%H%I%              ",
"                    J%K%e.a.a.a.a.L%K#M%N%n+O%>#p+P%Q%R%S%T%U%V%W%X%Y%Z%`%v  &.&                ",
"                    +&@&m@:$a.a.a.a.a.r._.#&$&2+%&W$&&*&=&-&z+;&>&j.,&'&)&!&~&{&                ",
"                      a. +]&^&a.a.a.a.a.a./&t.(&_&:&<&[&}&|&1&*#2&3&4&5&6&C+7&                  ",
"                      8&9&k+p.0&L@a.a.a.a.a.L@a&e.7%b&c&d&e&f&f&g&h&i&j&k&l&                    ",
"                        m&n&n@o&o&p&^.a.a.a.L%#$^&q&:+@&p&r&c&[@s&t&u&v&w&                      ",
"                            x&b.-%H.y&z&f&@&A&B&e.C&D& +]@K%P%E&F&n@G&H&                        ",
"                                I&J&#$r&[.K&L&M&N&O&P&Q&R&S&T&J@U&V&                            ",
"                                      W&X&Y&Z&/.`&T$ *.*+*@*#*                                  ",
"                                                                                                ",
"                                                                                                ",
"                                                                                                "};
