/* XPM */
static char * deluge_xpm[] = {
"48 43 692 2",
"  	c None",
". 	c #470000",
"+ 	c #300000",
"@ 	c #340000",
"# 	c #280000",
"$ 	c #190000",
"% 	c #4C0000",
"& 	c #780000",
"* 	c #DD0000",
"= 	c #FF0000",
"- 	c #E50000",
"; 	c #6F0000",
"> 	c #480000",
", 	c #6D0000",
"' 	c #F10000",
") 	c #620406",
"! 	c #280304",
"~ 	c #8C0000",
"{ 	c #B10102",
"] 	c #270000",
"^ 	c #900000",
"/ 	c #EC0000",
"( 	c #320000",
"_ 	c #410000",
": 	c #FC0000",
"< 	c #F60000",
"[ 	c #360000",
"} 	c #910000",
"| 	c #731316",
"1 	c #F90000",
"2 	c #FB0000",
"3 	c #3E0000",
"4 	c #ED0000",
"5 	c #CA0000",
"6 	c #EA0000",
"7 	c #411618",
"8 	c #33090A",
"9 	c #A5A6AC",
"0 	c #390607",
"a 	c #DA0000",
"b 	c #FD0000",
"c 	c #FA0000",
"d 	c #760000",
"e 	c #310606",
"f 	c #A19DA0",
"g 	c #291F20",
"h 	c #ADB0B6",
"i 	c #BFC4CA",
"j 	c #F8F9FA",
"k 	c #D0D0D5",
"l 	c #867B7E",
"m 	c #492D30",
"n 	c #440C0E",
"o 	c #271D1F",
"p 	c #880000",
"q 	c #8D0000",
"r 	c #060000",
"s 	c #2A0000",
"t 	c #DE0000",
"u 	c #B40000",
"v 	c #260101",
"w 	c #6D6D72",
"x 	c #E9ECF0",
"y 	c #FAFBFC",
"z 	c #FEFFFF",
"A 	c #FFFFFF",
"B 	c #FCFDFD",
"C 	c #E0E5EB",
"D 	c #C6CAD0",
"E 	c #26292E",
"F 	c #030303",
"G 	c #0A0A0A",
"H 	c #000000",
"I 	c #430000",
"J 	c #A40000",
"K 	c #950000",
"L 	c #350808",
"M 	c #988686",
"N 	c #DDDFE2",
"O 	c #F9FAFC",
"P 	c #FAFBFD",
"Q 	c #FCFDFE",
"R 	c #D6DDE5",
"S 	c #D0D3D6",
"T 	c #DCDCDC",
"U 	c #151515",
"V 	c #620000",
"W 	c #670000",
"X 	c #161313",
"Y 	c #A39E9E",
"Z 	c #FDFDFD",
"` 	c #7D7D7D",
" .	c #3A0000",
"..	c #B70000",
"+.	c #312525",
"@.	c #F3F4F7",
"#.	c #C7CED6",
"$.	c #FEFEFE",
"%.	c #A9A9A9",
"&.	c #070707",
"*.	c #380000",
"=.	c #940000",
"-.	c #DADADA",
";.	c #DFE4EA",
">.	c #8C949F",
",.	c #626870",
"'.	c #9FA6AF",
").	c #1A1B1D",
"!.	c #C9D0D8",
"~.	c #F6F8FA",
"{.	c #EDEDED",
"].	c #969696",
"^.	c #520000",
"/.	c #4D3434",
"(.	c #BBC2CD",
"_.	c #34373D",
":.	c #0A121E",
"<.	c #1E2F45",
"[.	c #2D3C51",
"}.	c #33445C",
"|.	c #29313F",
"1.	c #32353A",
"2.	c #BDC3CD",
"3.	c #DEE1E5",
"4.	c #AC0000",
"5.	c #0E0000",
"6.	c #F7F7F7",
"7.	c #DEE3EA",
"8.	c #525862",
"9.	c #54585F",
"0.	c #0F1722",
"a.	c #405E89",
"b.	c #43618B",
"c.	c #4E6B93",
"d.	c #5E789B",
"e.	c #5E779B",
"f.	c #303E50",
"g.	c #0D1217",
"h.	c #8C939D",
"i.	c #AFB7C2",
"j.	c #FDFEFE",
"k.	c #DFE5EB",
"l.	c #454D56",
"m.	c #04080C",
"n.	c #260000",
"o.	c #220000",
"p.	c #DBDBDB",
"q.	c #BDC6D1",
"r.	c #0D0F11",
"s.	c #040608",
"t.	c #222D3E",
"u.	c #4F6586",
"v.	c #557096",
"w.	c #4C6992",
"x.	c #55739B",
"y.	c #627DA3",
"z.	c #6882A6",
"A.	c #677EA1",
"B.	c #60799C",
"C.	c #344358",
"D.	c #282C31",
"E.	c #585E65",
"F.	c #E0E7F0",
"G.	c #B3BBC5",
"H.	c #364456",
"I.	c #4779B1",
"J.	c #3F0000",
"K.	c #5A5C5F",
"L.	c #EBEEF2",
"M.	c #353940",
"N.	c #18202B",
"O.	c #5D7496",
"P.	c #597499",
"Q.	c #516D96",
"R.	c #6A8AB1",
"S.	c #789EC6",
"T.	c #759ECB",
"U.	c #769ECB",
"V.	c #7EA5CE",
"W.	c #7B9DC5",
"X.	c #708CB1",
"Y.	c #6981A2",
"Z.	c #577091",
"`.	c #2B394D",
" +	c #545E6C",
".+	c #0E151D",
"++	c #6987A6",
"@+	c #6992C0",
"#+	c #4577B1",
"$+	c #BD0000",
"%+	c #EF0000",
"&+	c #5A5055",
"*+	c #C0C6CF",
"=+	c #11161E",
"-+	c #61799A",
";+	c #5C7699",
">+	c #5F7A9F",
",+	c #8EABCB",
"'+	c #80A6CF",
")+	c #7CA4CF",
"!+	c #7CA3CF",
"~+	c #80A6D0",
"{+	c #7FA5D0",
"]+	c #7DA3CE",
"^+	c #7A9EC6",
"/+	c #6C85A8",
"(+	c #5E779A",
"_+	c #4E6A91",
":+	c #517CAD",
"<+	c #5D8ABD",
"[+	c #8AAACE",
"}+	c #5181B6",
"|+	c #4F090D",
"1+	c #D7DCE2",
"2+	c #C0C8D2",
"3+	c #B4BCC7",
"4+	c #65696E",
"5+	c #4A5B75",
"6+	c #5F789C",
"7+	c #647DA1",
"8+	c #9FB8D4",
"9+	c #89ADD3",
"0+	c #84AAD3",
"a+	c #85ABD4",
"b+	c #83AAD2",
"c+	c #82A8D2",
"d+	c #7FA6D0",
"e+	c #7AA1CD",
"f+	c #769BC6",
"g+	c #6A83A7",
"h+	c #537099",
"i+	c #5887BB",
"j+	c #6B94C2",
"k+	c #7CA0C8",
"l+	c #4377AE",
"m+	c #9B0000",
"n+	c #CF0608",
"o+	c #220608",
"p+	c #0F070C",
"q+	c #161F2D",
"r+	c #1B222C",
"s+	c #6A81A1",
"t+	c #617A9D",
"u+	c #91A8C4",
"v+	c #9FBCDC",
"w+	c #8DB1D8",
"x+	c #8EB2D9",
"y+	c #8AAFD6",
"z+	c #86ACD5",
"A+	c #82A9D2",
"B+	c #7DA5D0",
"C+	c #78A0CC",
"D+	c #729AC7",
"E+	c #6B83A4",
"F+	c #5D769A",
"G+	c #537AAA",
"H+	c #5584B9",
"I+	c #7CA0C9",
"J+	c #618CBC",
"K+	c #3F71A8",
"L+	c #B70202",
"M+	c #222840",
"N+	c #4C6890",
"O+	c #6880A0",
"P+	c #7289A9",
"Q+	c #B6CBE0",
"R+	c #96B8DC",
"S+	c #96B9DD",
"T+	c #97B9DE",
"U+	c #98BADE",
"V+	c #94B7DC",
"W+	c #91B4DA",
"X+	c #88ADD6",
"Y+	c #83A9D2",
"Z+	c #769FCB",
"`+	c #6E91B8",
" @	c #667E9F",
".@	c #5778A3",
"+@	c #5686BA",
"@@	c #5786B9",
"#@	c #83A5CB",
"$@	c #4072AA",
"%@	c #1D0000",
"&@	c #C80000",
"*@	c #FE0000",
"=@	c #26050A",
"-@	c #304F7A",
";@	c #536E94",
">@	c #6C83A4",
",@	c #8DA2BD",
"'@	c #B7CDE4",
")@	c #9EBFE2",
"!@	c #A0C0E3",
"~@	c #A1C1E3",
"{@	c #A0C1E3",
"]@	c #9FBFE2",
"^@	c #9CBDE0",
"/@	c #93B6DC",
"(@	c #87ACD5",
"_@	c #80A7D1",
":@	c #79A1CD",
"<@	c #719BC9",
"[@	c #6985A8",
"}@	c #5E7AA0",
"|@	c #4F80B6",
"1@	c #799EC6",
"2@	c #5380B4",
"3@	c #101010",
"4@	c #B2B2B2",
"5@	c #1C1C1C",
"6@	c #740000",
"7@	c #670609",
"8@	c #182442",
"9@	c #375885",
"0@	c #577296",
"a@	c #6981A1",
"b@	c #657D9E",
"c@	c #A2B5CC",
"d@	c #B9D0E8",
"e@	c #A8C7E7",
"f@	c #AAC8E8",
"g@	c #A9C7E7",
"h@	c #A6C5E6",
"i@	c #A2C2E4",
"j@	c #9EBEE1",
"k@	c #92B5DB",
"l@	c #8BAFD7",
"m@	c #83A9D3",
"n@	c #7BA3CE",
"o@	c #739CCA",
"p@	c #6790BD",
"q@	c #5C80AB",
"r@	c #5987BB",
"s@	c #628DBD",
"t@	c #6B91BD",
"u@	c #3F6BA0",
"v@	c #B6B6B6",
"w@	c #B8B8B8",
"x@	c #FCFCFC",
"y@	c #8F8F8F",
"z@	c #350A0C",
"A@	c #161C30",
"B@	c #1B4075",
"C@	c #365685",
"D@	c #577197",
"E@	c #677FA0",
"F@	c #B1C4D7",
"G@	c #BCD3EC",
"H@	c #B2CFED",
"I@	c #B3D0ED",
"J@	c #B3CFED",
"K@	c #B0CDEC",
"L@	c #ADCBEA",
"M@	c #A3C2E4",
"N@	c #9CBDE1",
"O@	c #95B8DD",
"P@	c #8DB2D8",
"Q@	c #7DA4CF",
"R@	c #749DCA",
"S@	c #6B96C5",
"T@	c #628FC0",
"U@	c #4B7CB3",
"V@	c #7FA0C6",
"W@	c #3E6B9F",
"X@	c #040404",
"Y@	c #D6D6D6",
"Z@	c #FAFAFA",
"`@	c #9F9F9F",
" #	c #130F0F",
".#	c #A30000",
"+#	c #D30000",
"@#	c #530000",
"##	c #0F060B",
"$#	c #4B5C75",
"%#	c #345583",
"&#	c #6B82A2",
"*#	c #637B9E",
"=#	c #ACBED3",
"-#	c #C4DAF0",
";#	c #BCD6F2",
">#	c #BCD7F2",
",#	c #BBD6F1",
"'#	c #B8D3F0",
")#	c #AECBEA",
"!#	c #A7C6E6",
"~#	c #A0C0E2",
"{#	c #8FB3D9",
"]#	c #7EA5D0",
"^#	c #749ECB",
"/#	c #4E7FB6",
"(#	c #4477B0",
"_#	c #7FA0C5",
":#	c #426DA0",
"<#	c #5B5B5B",
"[#	c #B9B9B9",
"}#	c #938A8A",
"|#	c #AB0000",
"1#	c #F70000",
"2#	c #E40000",
"3#	c #B30000",
"4#	c #6C0000",
"5#	c #250000",
"6#	c #130000",
"7#	c #224475",
"8#	c #6880A4",
"9#	c #2D4F7F",
"0#	c #506B92",
"a#	c #6B82A3",
"b#	c #5F789B",
"c#	c #9DB1C8",
"d#	c #D0E2F4",
"e#	c #C5DEF7",
"f#	c #C2DCF6",
"g#	c #BED8F3",
"h#	c #B8D4F0",
"i#	c #B1CEEC",
"j#	c #99BBDF",
"k#	c #90B4DA",
"l#	c #6A96C5",
"m#	c #618EC0",
"n#	c #5786BA",
"o#	c #4D7EB5",
"p#	c #4376AF",
"q#	c #7B9CC2",
"r#	c #456E9F",
"s#	c #494949",
"t#	c #A4A4A4",
"u#	c #010000",
"v#	c #140000",
"w#	c #264A7C",
"x#	c #25487A",
"y#	c #45628D",
"z#	c #5E789C",
"A#	c #8A9FBA",
"B#	c #D9E9F7",
"C#	c #CFE5FC",
"D#	c #CDE4FB",
"E#	c #C9E1F9",
"F#	c #C3DCF6",
"G#	c #B4D0EE",
"H#	c #ABC9E9",
"I#	c #90B3DA",
"J#	c #86ACD4",
"K#	c #6994C4",
"L#	c #5F8CBF",
"M#	c #4B7CB4",
"N#	c #4074AE",
"O#	c #7899BF",
"P#	c #48709F",
"Q#	c #373737",
"R#	c #0E0E0E",
"S#	c #2D4F82",
"T#	c #667FA2",
"U#	c #204478",
"V#	c #395986",
"W#	c #587298",
"X#	c #6880A2",
"Y#	c #CFDDED",
"Z#	c #D4E9FF",
"`#	c #D3E9FF",
" $	c #CEE5FC",
".$	c #C6DFF8",
"+$	c #B5D1EE",
"@$	c #ACCAE9",
"#$	c #99BADF",
"$$	c #6692C3",
"%$	c #5C8ABD",
"&$	c #5282B8",
"*$	c #487AB2",
"=$	c #3F72AB",
"-$	c #7998BE",
";$	c #476D9C",
">$	c #0B0B0B",
",$	c #848484",
"'$	c #254B7E",
")$	c #23477A",
"!$	c #2A4C7E",
"~$	c #49668F",
"{$	c #677F9F",
"]$	c #667EA1",
"^$	c #869BB7",
"/$	c #D9E9F9",
"($	c #D0E7FD",
"_$	c #C8E0F9",
":$	c #78A0CD",
"<$	c #6E98C7",
"[$	c #6390C1",
"}$	c #5988BC",
"|$	c #4578B0",
"1$	c #4474AA",
"2$	c #7D9ABD",
"3$	c #3B6192",
"4$	c #EFEFEF",
"5$	c #EAEAEA",
"6$	c #B1B1B1",
"7$	c #1E4376",
"8$	c #547098",
"9$	c #345584",
"0$	c #375685",
"a$	c #A8B9D0",
"b$	c #D5E9FD",
"c$	c #D1E7FD",
"d$	c #C7DFF8",
"e$	c #BDD7F3",
"f$	c #89AED6",
"g$	c #6C97C6",
"h$	c #638FC0",
"i$	c #5B88BC",
"j$	c #5081B6",
"k$	c #4678B0",
"l$	c #5881B1",
"m$	c #6D8CB3",
"n$	c #3C5E8E",
"o$	c #747474",
"p$	c #797979",
"q$	c #B7B7B7",
"r$	c #D1D1D1",
"s$	c #42618D",
"t$	c #496791",
"u$	c #3F5E8A",
"v$	c #5A7499",
"w$	c #7288A6",
"x$	c #768AA8",
"y$	c #91A5BE",
"z$	c #CADEF3",
"A$	c #C4DDF6",
"B$	c #B9D5F1",
"C$	c #AFCCEB",
"D$	c #A5C4E5",
"E$	c #9ABCE0",
"F$	c #86ABD4",
"G$	c #7EA5CF",
"H$	c #779FCB",
"I$	c #6E98C6",
"J$	c #6691C1",
"K$	c #5C8ABC",
"L$	c #5381B7",
"M$	c #4A79AF",
"N$	c #7292B9",
"O$	c #5E7DA7",
"P$	c #3D5E8B",
"Q$	c #284A7D",
"R$	c #24477A",
"S$	c #274A7D",
"T$	c #43608B",
"U$	c #6F85A5",
"V$	c #7C90AB",
"W$	c #8396B1",
"X$	c #A0B7D0",
"Y$	c #B4D0ED",
"Z$	c #AAC9E8",
"`$	c #96B8DD",
" %	c #86ABD3",
".%	c #7FA5CF",
"+%	c #789FCA",
"@%	c #7099C6",
"#%	c #6792C2",
"$%	c #5E8BBC",
"%%	c #5382B6",
"&%	c #5D86B4",
"*%	c #849EBF",
"=%	c #466895",
"-%	c #1C3D6C",
";%	c #46648F",
">%	c #4F6B94",
",%	c #284A7C",
"'%	c #557095",
")%	c #677E9F",
"!%	c #768BA9",
"~%	c #8093AF",
"{%	c #8295B2",
"]%	c #8AA3C1",
"^%	c #93B3D5",
"/%	c #93B6DB",
"(%	c #8DB0D6",
"_%	c #85AAD2",
":%	c #79A0CA",
"<%	c #7199C6",
"[%	c #6993C1",
"}%	c #5F8BBC",
"|%	c #5683B5",
"1%	c #84A0C3",
"2%	c #5E7EA8",
"3%	c #43628B",
"4%	c #214478",
"5%	c #657EA2",
"6%	c #335484",
"7%	c #224679",
"8%	c #385886",
"9%	c #4B6790",
"0%	c #597498",
"a%	c #667EA0",
"b%	c #6F85A3",
"c%	c #748AA8",
"d%	c #7A8EAB",
"e%	c #7990AE",
"f%	c #7A95B7",
"g%	c #7C9DC3",
"h%	c #7FA4CD",
"i%	c #7AA0CA",
"j%	c #729AC6",
"k%	c #5F8ABB",
"l%	c #7E9EC3",
"m%	c #7C98BB",
"n%	c #4A6B96",
"o%	c #193865",
"p%	c #2F5081",
"q%	c #3C5C89",
"r%	c #2A4C7D",
"s%	c #3B5A87",
"t%	c #47648E",
"u%	c #516D95",
"v%	c #5C769B",
"w%	c #627B9E",
"x%	c #667FA0",
"y%	c #677FA1",
"z%	c #617BA1",
"A%	c #6381A9",
"B%	c #6589B4",
"C%	c #6791BE",
"D%	c #86A6C9",
"E%	c #7E9CBF",
"F%	c #4F729E",
"G%	c #41587A",
"H%	c #1A3C6B",
"I%	c #274A7C",
"J%	c #627BA0",
"K%	c #476590",
"L%	c #1F4377",
"M%	c #25487B",
"N%	c #405F8A",
"O%	c #48668F",
"P%	c #4E6992",
"Q%	c #506C95",
"R%	c #506B94",
"S%	c #4C6993",
"T%	c #496691",
"U%	c #557098",
"V%	c #778EAF",
"W%	c #6F8CB1",
"X%	c #5075A1",
"Y%	c #415674",
"Z%	c #183764",
"`%	c #526E96",
" &	c #4E6B94",
".&	c #2E5080",
"+&	c #1E4277",
"@&	c #2A4D7E",
"#&	c #305282",
"$&	c #375786",
"%&	c #3A5A88",
"&&	c #405F8B",
"*&	c #546F97",
"=&	c #748BAB",
"-&	c #768DAD",
";&	c #4F6B95",
">&	c #325484",
",&	c #385072",
"'&	c #254778",
")&	c #41608C",
"!&	c #637CA0",
"~&	c #4D6A93",
"{&	c #486590",
"]&	c #44628E",
"^&	c #4A6791",
"/&	c #5C779D",
"(&	c #6E86A7",
"_&	c #7D92B1",
":&	c #7189AA",
"<&	c #4E6A93",
"[&	c #325383",
"}&	c #355683",
"|&	c #303E4E",
"1&	c #224069",
"2&	c #23467A",
"3&	c #2C4E7F",
"4&	c #3D5C8A",
"5&	c #476490",
"6&	c #5B769D",
"7&	c #5D779D",
"8&	c #43608D",
"9&	c #335686",
"0&	c #355884",
"a&	c #2C3E55",
"b&	c #1C3250",
"c&	c #223D67",
"d&	c #264471",
"e&	c #2E4D79",
"f&	c #31527F",
"g&	c #365885",
"h&	c #37557F",
"i&	c #324B6D",
"                                              . + @ # $                                         ",
"                                          % & * = = = - ; >                                     ",
"                                        , ' = = = = = = = ' ) !                                 ",
"                                      ~ = = = = = = = = = = = { ]                               ",
"                                    ^ = = = = = = = = = = = = = / (                             ",
"                                  _ : = = = = = = = = = = = = = = < [                           ",
"                                  } = = = = = = = = = = : | 1 = = = 2 3                         ",
"                                + = = = = = = = 4 5 6 7 8 9 0 a = = b c [                       ",
"                                d = = = = = = = e f g h i j k l m n o p q r                     ",
"                              s t = = = = = u v w x y z A A A A B C D E F G H                   ",
"                              I = = = J K L M N O A A A A A A A A A P Q R S T U                 ",
"                              V = = W X Y Z A A A A A A A A A A A A A A A A A ` H H             ",
"                             ...= = +.Z A A A A A A A A A @.A #.$.A A A A A A A %.&.            ",
"                            *.c = =.H -.A A A A A A A ;.>.,.'.).!.~.A A A A A A {.].H           ",
"                            ^.= = /.$.A A A A A B A (._.:.<.[.}.|.1.2.P A A A Q 3.H             ",
"                            4.= = 5.6.A A A A A 7.8.9.0.a.b.c.d.e.f.g.h.i.j.A k.l.m.            ",
"                          n.< = = o.p.A A A A q.r.s.t.u.v.w.x.y.z.A.B.C.D.E.F.G.H.I.            ",
"                          J.= = = p K.L.A A $.M.N.O.P.Q.R.S.T.U.V.W.X.Y.Z.`. +.+++@+#+          ",
"                        $ $+= = = %+&+A A A *+=+-+;+>+,+'+)+)+!+~+{+]+^+/+(+_+:+<+[+}+          ",
"                        *.= = = = = |+1+2+3+4+5+6+7+8+9+0+a+a+0+b+c+d+e+f+g+(+h+i+j+k+l+        ",
"                        m+= = = = = n+o+p+q+r+s+t+u+v+w+x+x+x+w+y+z+A+B+C+D+E+F+G+H+I+J+K+      ",
"                      @ = = = = = = = L+M+N+O+B.P+Q+R+S+T+U+S+V+W+w+X+Y+)+Z+`+ @.@+@@@#@$@      ",
"          H         %@&@= = = = = = *@=@-@;@>@t+,@'@)@!@~@{@]@^@U+/@w+(@_@:@<@[@}@i+|@1@2@      ",
"      3@H 4@5@      6@= = = = = = *@7@8@9@0@a@b@c@d@e@f@f@g@h@i@j@U+k@l@m@n@o@p@q@r@|@s@t@u@    ",
"    H v@w@x@y@H n.~ = = = = = = / z@A@B@C@D@E@b@F@G@H@I@J@K@L@g@M@N@O@P@a+Q@R@S@T@r@|@U@V@W@    ",
"  X@Y@Z@A A `@ #.#= = = = = +#@###$#B@B@%#v.&#*#=#-#;#>#,#'#I@)#!#~#U+{#z+]#^#S@T@i+/#(#_#:#    ",
"<#[#A A A A A }#|#1#2#3#4#5#6#  7#8#B@B@9#0#a#b#c#d#e#e#f#g#h#i#f@i@j#k#(@]#R@l#m#n#o#p#q#r#    ",
"s#A A A A A A t#u#v#5#          w#7+B@B@x#y#b@z#A#B#C#D#E#F#;#G#H#i@j#I#J#Q@o@K#L#H+M#N#O#P#    ",
"Q#$.A A A A A {.R#              S#T#B@B@U#V#W#s+X#Y#Z#`# $.$g#+$@$i@#${#a+n@<@$$%$&$*$=$-$;$    ",
">$`@$.A A A A -.,$              '$T#)$B@B@!$~${$]$^$/$`#($_$g#+$H#~@T+w+A+:$<$[$}$|@|$1$2$3$    ",
"  H 4$$.Z 5$6$<#H               7$8$9$B@B@U#0$v.>@s+a$b$c$d$e$J@e@)@V+f$d+T.g$h$i$j$k$l$m$n$    ",
"    o$p$q$r$H G                   s$t$B@B@B@x#u$v$w$x$y$z$A$B$C$D$E$I#F$G$H$I$J$K$L$M$N$O$P$    ",
"                                  Q$8#R$B@B@B@S$T$v$U$V$W$X$Y$Z$!@`$P@ %.%+%@%#%$%%%&%*%=%      ",
"                                  -%;%>%B@B@B@B@,%a.'%)%!%~%{%]%^%/%(%_%.%:%<%[%}%|%1%2%3%      ",
"                                    4%5%6%B@B@B@B@7%8%9%0%a%b%c%d%e%f%g%h%i%j%@+k%l%m%n%        ",
"                                    o%p%T#q%B@B@B@B@B@r%s%t%u%v%w%x%y%]$z%A%B%C%D%E%F%G%        ",
"                                      H%I%J%K%L%B@B@B@B@B@M%%#N%O%P%Q%R%S%T%U%V%W%X%Y%          ",
"                                        Z%U#`%8# &.&B@B@B@+&R$@&#&$&%&&&*&=&-&;&>&,&            ",
"                                            '&7%)&J%!&8$~&{&;%]&^&/&(&_&:&<&[&}&|&              ",
"                                                1&2&3&C@4&5&Q.6&7&Q%8&9$9&0&a&                  ",
"                                                      b&c&d&e&f&g&h&i&                          ",
"                                                                                                ",
"                                                                                                "};
