<?xml version="1.0" encoding="UTF-8" standalone="no"?>
<!-- Created with Inkscape (http://www.inkscape.org/) -->
<svg
   xmlns:dc="http://purl.org/dc/elements/1.1/"
   xmlns:cc="http://creativecommons.org/ns#"
   xmlns:rdf="http://www.w3.org/1999/02/22-rdf-syntax-ns#"
   xmlns:svg="http://www.w3.org/2000/svg"
   xmlns="http://www.w3.org/2000/svg"
   xmlns:xlink="http://www.w3.org/1999/xlink"
   xmlns:sodipodi="http://sodipodi.sourceforge.net/DTD/sodipodi-0.dtd"
   xmlns:inkscape="http://www.inkscape.org/namespaces/inkscape"
   width="48px"
   height="48px"
   id="svg3440"
   sodipodi:version="0.32"
   inkscape:version="0.46"
   sodipodi:docbase="/home/zach/deluge/trunk"
   sodipodi:docname="deluge.svg"
   inkscape:export-filename="/home/andrew/Projects/deluge/branches/1.1.0_RC/deluge/data/pixmaps/deluge16.png"
   inkscape:export-xdpi="26.746834"
   inkscape:export-ydpi="26.746834"
   inkscape:output_extension="org.inkscape.output.svg.inkscape"
   sodipodi:modified="TRUE">
  <defs
     id="defs3">
    <inkscape:perspective
       sodipodi:type="inkscape:persp3d"
       inkscape:vp_x="0 : 24 : 1"
       inkscape:vp_y="0 : 1000 : 0"
       inkscape:vp_z="48 : 24 : 1"
       inkscape:persp3d-origin="24 : 16 : 1"
       id="perspective2537" />
    <linearGradient
       inkscape:collect="always"
       id="linearGradient2973">
      <stop
         style="stop-color:#eeeeec;stop-opacity:1;"
         offset="0"
         id="stop2975" />
      <stop
         style="stop-color:#eeeeec;stop-opacity:0;"
         offset="1"
         id="stop2977" />
    </linearGradient>
    <linearGradient
       id="linearGradient4126">
      <stop
         style="stop-color:#ffffff;stop-opacity:1.0000000;"
         offset="0.0000000"
         id="stop4128" />
      <stop
         style="stop-color:#ffffff;stop-opacity:0.16494845;"
         offset="1.0000000"
         id="stop4130" />
    </linearGradient>
    <linearGradient
       inkscape:collect="always"
       id="linearGradient4114">
      <stop
         style="stop-color:#000000;stop-opacity:1;"
         offset="0"
         id="stop4116" />
      <stop
         style="stop-color:#000000;stop-opacity:0;"
         offset="1"
         id="stop4118" />
    </linearGradient>
    <linearGradient
       id="linearGradient3962">
      <stop
         style="stop-color:#d3e9ff;stop-opacity:1.0000000;"
         offset="0.0000000"
         id="stop3964" />
      <stop
         style="stop-color:#d3e9ff;stop-opacity:1.0000000;"
         offset="0.15517241"
         id="stop4134" />
      <stop
         style="stop-color:#4074ae;stop-opacity:1.0000000;"
         offset="0.75000000"
         id="stop4346" />
      <stop
         style="stop-color:#36486c;stop-opacity:1.0000000;"
         offset="1.0000000"
         id="stop3966" />
    </linearGradient>
    <radialGradient
       r="13.994944"
       fy="33.506763"
       fx="-10.089286"
       cy="33.506763"
       cx="-10.089286"
       gradientTransform="matrix(1,0,0,0.791446,-14.01786,-11.28667)"
       gradientUnits="userSpaceOnUse"
       id="radialGradient4019"
       xlink:href="#linearGradient3993"
       inkscape:collect="always" />
    <radialGradient
       r="14.057444"
       fy="31.329016"
       fx="-10.323107"
       cy="31.329016"
       cx="-10.323107"
       gradientTransform="matrix(1,0,0,0.792374,-19.58761,2.818569)"
       gradientUnits="userSpaceOnUse"
       id="radialGradient4004"
       xlink:href="#linearGradient3993"
       inkscape:collect="always" />
    <radialGradient
       gradientUnits="userSpaceOnUse"
       gradientTransform="matrix(1,0,0,0.792374,0,6.785475)"
       r="14.057444"
       fy="31.329016"
       fx="-10.323107"
       cy="31.329016"
       cx="-10.323107"
       id="radialGradient3999"
       xlink:href="#linearGradient3993"
       inkscape:collect="always" />
    <radialGradient
       gradientUnits="userSpaceOnUse"
       gradientTransform="matrix(0.341185,-0.153831,1.08001,2.395374,-15.42222,-25.62103)"
       r="13.994946"
       fy="24.241488"
       fx="61.662098"
       cy="24.241488"
       cx="61.662098"
       id="radialGradient3943"
       xlink:href="#linearGradient1312"
       inkscape:collect="always" />
    <linearGradient
       id="linearGradient1312">
      <stop
         id="stop1314"
         offset="0"
         style="stop-color:#ffffff;stop-opacity:1;" />
      <stop
         id="stop1316"
         offset="1"
         style="stop-color:#ffffff;stop-opacity:0;" />
    </linearGradient>
    <linearGradient
       id="linearGradient3993">
      <stop
         style="stop-color:#ffffff;stop-opacity:1;"
         offset="0"
         id="stop3995" />
      <stop
         style="stop-color:#000000;stop-opacity:0"
         offset="1"
         id="stop3997" />
    </linearGradient>
    <radialGradient
       inkscape:collect="always"
       xlink:href="#linearGradient2973"
       id="radialGradient3866"
       cx="-22.375"
       cy="18.499998"
       fx="-22.375"
       fy="18.499998"
       r="14.33462"
       gradientTransform="matrix(1,0,0,1.140022,40.17678,1.347091)"
       gradientUnits="userSpaceOnUse" />
    <radialGradient
       gradientUnits="userSpaceOnUse"
       r="12.289036"
       fy="63.965388"
       fx="15.115514"
       cy="63.965388"
       cx="15.115514"
       gradientTransform="scale(1.643990,0.608276)"
       id="radialGradient5000"
       xlink:href="#linearGradient4114"
       inkscape:collect="always" />
    <linearGradient
       id="linearGradient4989">
      <stop
         id="stop4991"
         offset="0.0000000"
         style="stop-color:#d3e9ff;stop-opacity:1.0000000;" />
      <stop
         id="stop4993"
         offset="0.15517241"
         style="stop-color:#d3e9ff;stop-opacity:1.0000000;" />
      <stop
         id="stop4995"
         offset="0.75000000"
         style="stop-color:#4074ae;stop-opacity:1.0000000;" />
      <stop
         id="stop4997"
         offset="1.0000000"
         style="stop-color:#36486c;stop-opacity:1.0000000;" />
    </linearGradient>
    <linearGradient
       id="linearGradient4977">
      <stop
         id="stop4979"
         offset="0.0000000"
         style="stop-color:#ffffff;stop-opacity:1.0000000;" />
      <stop
         id="stop4981"
         offset="1.0000000"
         style="stop-color:#ffffff;stop-opacity:0.16494845;" />
    </linearGradient>
    <linearGradient
       id="linearGradient4825"
       inkscape:collect="always">
      <stop
         id="stop4827"
         offset="0"
         style="stop-color:#ffffff;stop-opacity:1;" />
      <stop
         id="stop4829"
         offset="1"
         style="stop-color:#ffffff;stop-opacity:0;" />
    </linearGradient>
    <radialGradient
       inkscape:collect="always"
       xlink:href="#linearGradient4114"
       id="radialGradient6090"
       gradientUnits="userSpaceOnUse"
       gradientTransform="scale(1.64399,0.608276)"
       cx="15.115514"
       cy="63.965388"
       fx="15.115514"
       fy="63.965388"
       r="12.289036" />
    <radialGradient
       inkscape:collect="always"
       xlink:href="#linearGradient4825"
       id="radialGradient6098"
       gradientUnits="userSpaceOnUse"
       cx="12.071323"
       cy="12.493138"
       fx="12.071323"
       fy="12.493138"
       r="6.7175145" />
    <radialGradient
       inkscape:collect="always"
       xlink:href="#linearGradient2973"
       id="radialGradient6103"
       gradientUnits="userSpaceOnUse"
       gradientTransform="matrix(0.2215232,-0.7815654,0.852394,0.2415962,-5.5810438,32.296619)"
       cx="17.903898"
       cy="40.159222"
       fx="17.903898"
       fy="40.159222"
       r="14.33681" />
    <radialGradient
       inkscape:collect="always"
       xlink:href="#linearGradient2973"
       id="radialGradient6106"
       gradientUnits="userSpaceOnUse"
       gradientTransform="matrix(0.5074328,-0.3754254,0.5021059,0.6786545,5.0403848,7.911921)"
       cx="12.525543"
       cy="38.09042"
       fx="12.525543"
       fy="38.09042"
       r="14.33681" />
    <radialGradient
       inkscape:collect="always"
       xlink:href="#linearGradient1312"
       id="radialGradient6109"
       gradientUnits="userSpaceOnUse"
       gradientTransform="matrix(0.768231,1.13675,-0.820972,0.554824,-3.72248,-85.07126)"
       cx="65.800331"
       cy="27.16758"
       fx="65.800331"
       fy="27.16758"
       r="12.972491" />
    <radialGradient
       inkscape:collect="always"
       xlink:href="#linearGradient4989"
       id="radialGradient6115"
       cx="16.651781"
       cy="32.187485"
       fx="16.651781"
       fy="32.187485"
       r="17.089519"
       gradientTransform="matrix(1.2929435,-1.3363843,0.8111012,0.7847365,-23.06394,31.768836)"
       gradientUnits="userSpaceOnUse" />
    <radialGradient
       inkscape:collect="always"
       xlink:href="#linearGradient1312"
       id="radialGradient3600"
       gradientUnits="userSpaceOnUse"
       gradientTransform="matrix(0.768231,1.13675,-0.820972,0.554824,-3.72248,-85.07126)"
       cx="65.800331"
       cy="27.16758"
       fx="65.800331"
       fy="27.16758"
       r="12.972491" />
  </defs>
  <sodipodi:namedview
     id="base"
     pagecolor="#ffffff"
     bordercolor="#666666"
     borderopacity="0.17254902"
     inkscape:pageopacity="0"
     inkscape:pageshadow="2"
     inkscape:zoom="8"
     inkscape:cx="-0.118724"
     inkscape:cy="23.478579"
     inkscape:current-layer="layer1"
     showgrid="false"
     inkscape:grid-bbox="true"
     inkscape:document-units="px"
     inkscape:window-width="1020"
     inkscape:window-height="709"
     inkscape:window-x="2"
     inkscape:window-y="25"
     inkscape:showpageshadow="false" />
  <metadata
     id="metadata4">
    <rdf:RDF>
      <cc:Work
         rdf:about="">
        <dc:format>image/svg+xml</dc:format>
        <dc:type
           rdf:resource="http://purl.org/dc/dcmitype/StillImage" />
        <dc:title>Internet Category</dc:title>
        <dc:creator>
          <cc:Agent>
            <dc:title>Jakub Steiner</dc:title>
          </cc:Agent>
        </dc:creator>
        <dc:contributor>
          <cc:Agent>
            <dc:title>Tuomas Kuosmanen</dc:title>
          </cc:Agent>
        </dc:contributor>
        <cc:license
           rdf:resource="http://creativecommons.org/licenses/by-sa/2.0/" />
        <dc:source>http://jimmac.musichall.cz</dc:source>
        <dc:subject>
          <rdf:Bag>
            <rdf:li>internet</rdf:li>
            <rdf:li>tools</rdf:li>
            <rdf:li>applications</rdf:li>
            <rdf:li>category</rdf:li>
          </rdf:Bag>
        </dc:subject>
      </cc:Work>
      <cc:License
         rdf:about="http://creativecommons.org/licenses/by-sa/2.0/">
        <cc:permits
           rdf:resource="http://web.resource.org/cc/Reproduction" />
        <cc:permits
           rdf:resource="http://web.resource.org/cc/Distribution" />
        <cc:requires
           rdf:resource="http://web.resource.org/cc/Notice" />
        <cc:requires
           rdf:resource="http://web.resource.org/cc/Attribution" />
        <cc:permits
           rdf:resource="http://web.resource.org/cc/DerivativeWorks" />
        <cc:requires
           rdf:resource="http://web.resource.org/cc/ShareAlike" />
      </cc:License>
    </rdf:RDF>
  </metadata>
  <g
     id="layer1"
     inkscape:label="Layer 1"
     inkscape:groupmode="layer">
    <path
       sodipodi:type="arc"
       style="fill:url(#radialGradient6090);fill-opacity:1;stroke:none;stroke-opacity:1"
       id="path4112"
       sodipodi:cx="24.849752"
       sodipodi:cy="38.908627"
       sodipodi:rx="20.203051"
       sodipodi:ry="7.4751287"
       d="M 45.052803,38.908627 A 20.203051,7.4751287 0 1 1 4.6467018,38.908627 A 20.203051,7.4751287 0 1 1 45.052803,38.908627 z"
       transform="matrix(0.8242275,0,0,1.0247154,11.169046,-1.5339254)"
       inkscape:export-xdpi="480"
       inkscape:export-ydpi="480" />
    <path
       style="fill:url(#radialGradient6115);fill-opacity:1;fill-rule:evenodd;stroke:none;stroke-width:0.07523891px;stroke-linecap:butt;stroke-linejoin:miter;stroke-opacity:1"
       d="M 30.916344,5.2602415 L 42.563315,20.320118 C 50.974681,30.394623 46.187982,42.64136 33.3795,43.577981 C 15.358322,44.084452 15.74884,28.243996 19.878369,20.618225 L 30.916344,5.2602415 z"
       id="path2069"
       sodipodi:nodetypes="ccccc" />
    <path
       style="fill:#1b4075;fill-opacity:1;fill-rule:evenodd;stroke:none;stroke-width:0.07523891px;stroke-linecap:butt;stroke-linejoin:miter;stroke-opacity:1"
       d="M 40.632667,27.172444 C 35.292216,15.764781 25.36392,19.825304 25.114901,27.87438 C 24.78456,38.552036 40.317313,37.15312 42.028017,40.505459 C 35.160736,45.905169 23.112887,43.774611 19.623444,38.979883 C 16.139335,34.192486 16.383697,26.726257 19.468552,21.469285 C 31.104001,5.2798337 44.667436,25.641829 40.632667,27.172444 z"
       id="path2969"
       sodipodi:nodetypes="cscscc" />
    <path
       style="fill:none;fill-opacity:1;fill-rule:evenodd;stroke:#ffffff;stroke-width:0.95704013;stroke-linecap:butt;stroke-linejoin:miter;stroke-miterlimit:4;stroke-dasharray:none;stroke-opacity:0.36612022"
       d="M 30.963269,7.5110633 L 41.455662,21.089462 C 49.035273,30.164653 44.380533,41.327864 32.814866,42.279996 C 16.517132,42.720871 16.548251,28.891602 20.6766,22.118125 L 30.963269,7.5110633 z"
       id="path2071"
       sodipodi:nodetypes="ccccc" />
    <path
       style="fill:url(#radialGradient6106);fill-opacity:1;fill-rule:evenodd;stroke:none;stroke-width:0.07523891px;stroke-linecap:butt;stroke-linejoin:miter;stroke-opacity:1"
       d="M 40.674724,27.199008 C 35.334273,15.791345 26.384705,20.069363 26.135686,28.118439 C 25.805345,38.796095 40.35937,37.179684 42.070074,40.532023 C 35.202794,45.931733 23.154945,43.801175 19.665501,39.006447 C 16.181392,34.21905 16.425755,26.752821 19.51061,21.495849 C 31.146058,5.3063976 44.709494,25.668393 40.674724,27.199008 z"
       id="path3868"
       sodipodi:nodetypes="cscscc" />
    <path
       style="fill:url(#radialGradient6103);fill-opacity:1;fill-rule:evenodd;stroke:none;stroke-width:0.07523891px;stroke-linecap:butt;stroke-linejoin:miter;stroke-opacity:1"
       d="M 40.640877,27.171415 C 34.927307,15.577193 23.732953,19.413173 23.483934,27.462249 C 23.153593,38.139906 38.686346,36.740989 40.39705,40.093328 C 33.52977,45.493038 21.481921,43.36248 17.992477,38.567753 C 14.508368,33.780355 14.75273,26.314126 17.837586,21.057154 C 29.500525,4.8426732 44.913817,25.012264 40.640877,27.171415 z"
       id="path4874"
       sodipodi:nodetypes="cscscc" />
    <path
       transform="matrix(-0.7213323,0.9154867,1.0781731,6.5972896e-2,32.992168,26.687792)"
       inkscape:r_cy="true"
       inkscape:r_cx="true"
       d="M 18.788838,12.493138 A 6.7175145,6.7175145 0 1 1 5.3538089,12.493138 A 6.7175145,6.7175145 0 1 1 18.788838,12.493138 z"
       sodipodi:ry="6.7175145"
       sodipodi:rx="6.7175145"
       sodipodi:cy="12.493138"
       sodipodi:cx="12.071323"
       id="path4941"
       style="opacity:0.21999996;fill:url(#radialGradient6098);fill-opacity:1;fill-rule:evenodd;stroke:none;stroke-width:1;stroke-linecap:round;stroke-linejoin:round;marker:none;marker-start:none;marker-mid:none;marker-end:none;stroke-miterlimit:4;stroke-dasharray:none;stroke-dashoffset:0;stroke-opacity:1;visibility:visible;display:inline;overflow:visible"
       sodipodi:type="arc" />
    <g
       id="g3365"
       transform="matrix(0.8699807,0,0,0.8699807,8.7814931,4.7546664)">
      <path
         sodipodi:nodetypes="ccccc"
         id="path3945"
         d="M 23.940758,0.96491709 L 34.727367,14.909752 C 42.647208,24.392311 40.447304,20.283975 28.362481,21.278846 C 25.083165,11.203805 18.13871,11.859899 13.523802,15.675236 L 23.940758,0.96491709 z"
         style="opacity:0.46000001;fill:url(#radialGradient3600);fill-opacity:1;fill-rule:evenodd;stroke:none;stroke-width:0.07523891px;stroke-linecap:butt;stroke-linejoin:miter;stroke-opacity:1" />
      <path
         sodipodi:nodetypes="czscccccczzzzccccccccccccccccccz"
         id="path3698"
         d="M 33.573996,8.579524 C 33.139548,7.560802 26.634749,0.093308 21.55186,-0.613876 C 16.456168,-1.322842 12.888849,2.656854 12.181664,3.27564 C 11.474478,3.894427 8.734139,11.05467 8.734139,11.05467 L 6.34739,19.098895 L 4.756225,22.723216 L 3.253458,25.109964 L 2.015885,26.524333 L -0.017271,27.408314 C -0.017271,27.408314 0.214774,26.977373 0.524168,27.507761 C 0.833561,28.038149 -0.94545,29.187324 1.839089,29.651414 C 4.639284,30.118113 7.187172,29.087877 10.5021,27.231518 C 13.817028,25.375158 13.905426,23.4083 14.480014,22.104428 C 15.054601,20.800558 12.80045,22.016031 12.80045,22.016031 L 12.623654,20.69006 L 11.828072,18.922099 L 10.944091,15.120981 L 11.828072,14.148603 L 12.358459,13.706612 L 11.916469,12.38064 L 18.192732,9.728698 L 19.607101,7.783942 L 21.640257,8.579524 L 22.347442,7.165155 L 23.850208,7.783942 L 24.468995,6.369573 L 25.087781,6.281174 L 25.618171,7.872339 L 29.419287,8.844719 L 30.126472,7.960738 L 30.922055,9.021515 C 30.352207,8.375687 34.008445,9.598246 33.573996,8.579524 z"
         style="opacity:1;fill:#ff0000;fill-opacity:1;fill-rule:evenodd;stroke:#000000;stroke-width:0.1237573px;stroke-linecap:butt;stroke-linejoin:miter;stroke-opacity:1" />
      <path
         style="opacity:1;fill:#000000;fill-opacity:1"
         d="M -1.8658071,35.480881 C -1.3961575,33.915939 0.77023373,35.64029 0.93307289,33.625122 C 3.0045477,33.568551 1.4714608,31.122019 0.8277383,30.504771 C 2.6727497,29.499771 5.099835,29.758147 7.1740146,29.225869 C 9.3234379,28.983732 10.875169,27.735044 12.495573,26.489428 C 13.896045,25.338965 14.403533,23.602126 14.91303,21.938766 C 15.825438,22.054898 17.228064,23.224355 17.338122,21.508744 C 17.570031,20.009402 18.835994,19.172147 19.74715,18.14825 C 20.870737,18.302432 21.246113,17.047729 22.361342,17.084722 C 22.649219,14.804157 25.243469,14.949456 26.857807,15.125494 C 27.623106,14.045688 28.702877,16.927924 30.099791,16.61491 C 31.856316,17.583082 33.420128,18.832048 35.340978,19.31916 C 36.845671,19.146276 37.256325,17.901608 37.264677,16.789795 C 38.885388,17.554124 38.25615,15.61644 38.317734,15.027324 C 40.684755,15.486873 39.142041,12.991766 38.048041,12.546714 C 40.095668,12.091262 38.425343,10.621461 37.042989,11.321448 C 35.528634,9.4651943 33.705149,8.2063319 32.111405,6.3112517 C 30.859398,4.6207817 29.121509,3.304534 27.519485,2.020629 C 25.686541,0.72608646 23.727831,-0.46099677 21.600859,-1.1863804 C 19.516265,-1.1209198 17.58199,-0.36188868 15.724309,0.51867611 C 12.827924,1.6708469 10.912188,4.4182711 9.8092718,7.2239052 C 9.0805981,9.8801677 7.9982757,12.401027 7.3587227,15.092813 C 6.4458121,16.953343 6.2407819,19.045674 5.2507128,20.875373 C 4.3957042,22.996939 3.1133004,24.907122 1.5448314,26.563077 C -0.76753954,27.84222 -0.46497659,24.244274 -2.0983442,23.736974 C -3.2640764,24.000632 -2.9582715,26.068524 -4.431877,24.906649 C -5.6248397,26.224199 -7.1129042,27.433855 -8.3977488,28.767477 C -8.4470288,29.930372 -8.3308313,30.805032 -8.401672,31.952846 C -6.7142477,32.401881 -6.5783873,33.668059 -6.0358993,35.057784 C -4.7324405,35.211075 -3.1585557,35.647677 -1.8658071,35.480881 z M -3.382494,34.737949 C -3.7226983,34.213592 -3.4201553,32.520021 -4.2771365,33.831171 C -4.5363699,35.885386 -6.6238601,34.102275 -5.883234,32.681145 C -5.9631862,31.789434 -9.1525512,31.956735 -7.269396,30.86066 C -6.0068564,30.406058 -9.3154395,29.448234 -7.300297,28.496426 C -5.8888251,29.465039 -5.6328155,28.646822 -6.375653,27.574184 C -5.2315118,27.292956 -3.2040976,27.7401 -4.8305278,26.084352 C -4.0879476,24.079286 -2.5953881,28.887499 -2.580814,26.075246 C -2.3570024,22.801138 -0.36181089,26.866812 -1.2994248,28.260925 C -0.85231078,28.955321 0.66611718,26.311352 -0.176979,28.11298 C -1.0932882,28.952374 1.7242759,29.830801 -0.47936803,29.974322 C -0.57974586,30.678739 2.5648188,32.445975 0.75734151,32.696169 C 0.17167101,31.847222 -1.2480181,31.546601 -0.23535081,32.922183 C 0.3634108,34.643856 -1.2490302,34.320628 -1.3047394,32.902415 C -2.9231436,30.561455 -0.86161506,37.005099 -3.382494,34.737949 z M 0.81584001,29.091938 C -0.39284613,27.328623 2.953167,26.539656 3.6265774,25.078583 C 5.1591894,23.196257 5.8558004,20.801297 6.9022268,18.636193 C 7.7597345,16.658247 8.3320474,14.60398 8.856123,12.520647 C 9.5582298,9.3854081 10.3776,6.1521461 12.390025,3.5922375 C 13.744123,1.7710287 15.819322,0.90055772 17.844238,0.073083121 C 19.955159,-0.74795372 22.474238,-0.74454018 24.297471,0.74730942 C 26.987328,2.1391391 29.279134,4.1137647 31.381998,6.2672737 C 32.443238,7.0292759 34.335546,8.9938608 31.784828,8.7752489 C 30.904717,8.6358166 30.364997,6.9128601 29.492202,8.3430625 C 27.48605,8.6061678 25.865155,7.1209473 24.534656,6.0066355 C 23.75602,6.5440604 23.713556,7.9112076 22.571218,6.8635214 C 21.69708,7.4965075 21.225325,8.5744813 19.979373,7.4488682 C 18.752679,7.2745625 19.128067,9.3254211 17.76291,9.3137083 C 17.066178,10.06249 15.502533,10.318643 14.557252,10.973607 C 13.34577,9.9000119 12.577088,11.771627 11.820118,12.417127 C 12.700467,14.052961 10.05453,14.045347 10.91243,15.851996 C 9.9395893,17.377334 11.994444,18.408781 11.89362,20.106671 C 12.685711,20.946597 12.657518,22.929063 14.124077,22.487644 C 13.56926,24.503494 11.920449,26.259377 10.055265,27.148871 C 7.9933297,27.860518 6.0461303,28.889837 3.8527668,29.154346 C 2.8634205,28.976887 1.5614142,29.847587 0.81584001,29.091938 z M 15.42236,21.059101 C 14.733923,20.676958 14.546212,21.788592 13.966365,20.990435 C 12.816574,22.788737 13.446326,20.070553 12.435134,19.834877 C 13.112035,19.138805 13.658183,18.151342 12.157999,18.42789 C 11.684614,17.894384 12.883497,16.890194 11.887843,16.43604 C 12.148718,15.754431 10.571952,14.048814 12.415898,14.680413 C 14.63585,15.359599 12.732996,13.228486 12.548436,12.570779 C 13.441528,12.771865 13.905168,12.147314 14.457112,11.853744 C 15.772876,11.833746 16.825516,9.6830101 18.535613,10.428882 C 18.180336,8.7349784 20.467579,10.726148 19.788845,8.9625528 C 19.491032,6.6785344 21.412426,10.181548 22.255308,8.756321 C 22.789463,8.5488759 22.485821,6.9651378 23.422424,8.199413 C 24.697844,10.162632 24.105088,4.8968989 25.223077,7.3450864 C 25.263866,9.2150194 27.962966,8.1248007 29.053929,9.2883979 C 29.863706,9.4434175 30.524492,7.785046 30.34388,9.5165013 C 30.220901,11.553716 32.457227,8.513311 32.124925,10.485683 C 32.827382,10.722688 33.747395,9.1978474 33.752454,10.900626 C 34.285809,11.466596 35.816249,8.9639714 35.478312,10.914811 C 35.14637,12.242104 36.845477,13.108677 38.257107,13.637022 C 40.218943,15.200691 35.148202,13.000789 37.269037,15.159748 C 38.562096,17.019927 36.761108,15.467486 36.077765,15.83372 C 36.221013,16.639259 37.139862,18.935188 35.601473,17.313376 C 34.751815,17.151126 35.536443,19.710816 34.395168,18.296358 C 34.203751,17.523166 34.328799,15.855929 33.442046,17.417935 C 32.20544,18.290064 33.254123,14.714185 31.828526,16.530944 C 30.604178,16.864688 31.05068,13.812835 29.755008,15.748609 C 29.673929,15.275727 29.477857,13.633995 28.704285,14.928873 C 27.274048,15.255957 27.385518,10.821399 26.52917,13.664966 C 26.303496,16.367092 24.583686,11.308226 24.607723,14.214925 C 24.220653,14.32308 23.28857,12.73732 23.360669,14.501594 C 22.826233,14.899047 21.869306,13.704006 22.14997,15.240506 C 21.886359,15.867703 20.242845,14.500392 21.242767,15.996531 C 22.007132,17.598972 18.060052,14.218488 19.627214,16.677047 C 20.076067,17.379282 17.079253,16.299179 18.397593,17.923468 C 17.431701,17.609485 17.640838,18.57246 17.428828,19.090056 C 16.316862,19.340271 17.506546,22.06282 16.173873,20.464288 C 15.400906,20.780672 16.60878,22.438306 15.42236,21.059101 L 15.42236,21.059101 z"
         id="path2801" />
      <path
         id="path3363"
         d="M 13.178878,21.423697 C 13.137147,21.314949 13.103004,21.021749 13.103004,20.772143 C 13.103004,20.433181 13.020742,20.252718 12.777998,20.059162 L 12.452992,19.800009 L 12.905754,19.258093 C 13.439745,18.618944 13.353017,18.371421 12.595075,18.371421 C 12.017207,18.371421 11.891155,18.210087 12.154729,17.807822 C 12.409833,17.418487 12.413883,16.761936 12.161779,16.665194 C 12.040185,16.618536 11.998035,16.505229 12.046022,16.354034 C 12.091085,16.212057 11.99186,15.884322 11.799748,15.540593 C 11.329119,14.698546 11.361388,14.567477 12.009254,14.689654 C 12.301442,14.744757 12.765504,14.794134 13.040504,14.799381 C 13.50732,14.808287 13.542859,14.784033 13.575997,14.433921 C 13.603813,14.140022 13.489382,13.919919 13.046888,13.416199 C 12.577508,12.881874 12.511949,12.748859 12.65817,12.627508 C 12.759982,12.543007 13.009125,12.512107 13.249779,12.554128 C 13.715433,12.635436 13.874217,12.559961 14.086753,12.156288 C 14.204894,11.931899 14.30462,11.892994 14.60677,11.953424 C 14.926837,12.017436 15.067503,11.946916 15.584658,11.463178 C 16.426079,10.676124 16.854192,10.484401 17.831004,10.457178 L 18.665504,10.433921 L 18.705422,10.017623 C 18.737745,9.680553 18.785324,9.619089 18.955423,9.694659 C 19.070969,9.745992 19.334254,9.792701 19.540504,9.798457 L 19.915504,9.808921 L 19.870022,8.945353 L 19.824539,8.081786 L 20.202354,8.320353 C 20.410149,8.451564 20.787273,8.724169 21.040404,8.926141 C 21.42061,9.229503 21.536714,9.267229 21.708074,9.143086 C 21.822162,9.060434 22.070192,8.931869 22.259254,8.857387 C 22.538702,8.747297 22.603004,8.643792 22.603004,8.304069 C 22.603004,8.074229 22.65502,7.854027 22.718597,7.814736 C 22.782172,7.775444 23.094968,7.968998 23.413699,8.244858 C 23.732428,8.520718 24.038293,8.746421 24.093397,8.746421 C 24.1485,8.746421 24.229697,8.439159 24.273834,8.063617 C 24.36777,7.264363 24.57685,6.746421 24.80555,6.746421 C 24.954257,6.746421 25.109984,7.159061 25.283453,8.012734 C 25.358372,8.381426 25.627099,8.492093 26.45383,8.494714 C 26.781098,8.495751 27.406523,8.667948 28.049043,8.933921 C 28.630333,9.174546 29.212773,9.371421 29.343357,9.371421 C 29.473939,9.371421 29.721135,9.204618 29.89268,9.000749 C 30.255308,8.569788 30.353004,8.685116 30.353004,9.544144 C 30.353004,10.422323 30.727388,10.587223 31.511488,10.054414 C 31.949555,9.756737 31.978004,9.752304 31.978004,9.981691 C 31.978004,10.688506 32.317293,10.796784 32.984969,10.303044 L 33.415504,9.984668 L 33.5937,10.553046 C 33.69848,10.887252 33.847219,11.121421 33.954722,11.121421 C 34.055274,11.121421 34.384303,10.893968 34.685894,10.615971 C 34.987485,10.337976 35.295288,10.148251 35.369899,10.194363 C 35.503948,10.277211 35.459928,10.842116 35.284904,11.285128 C 35.218794,11.452459 35.264515,11.529373 35.46057,11.580643 C 35.661164,11.633101 35.70867,11.717428 35.655954,11.927467 C 35.564659,12.291212 35.946023,12.589421 37.471604,13.347228 C 38.12121,13.669909 38.674334,14.004233 38.70077,14.090171 C 38.762994,14.292442 38.164848,14.295434 37.421315,14.096569 C 37.113165,14.014153 36.817494,13.990263 36.764273,14.043484 C 36.71105,14.096708 36.887937,14.557321 37.157352,15.067073 C 37.426767,15.576824 37.614579,16.026512 37.574714,16.066378 C 37.534848,16.106243 37.27402,16.022437 36.995097,15.880141 C 36.023938,15.384693 35.868283,15.548708 36.222197,16.694547 C 36.585314,17.870187 36.56599,17.968203 36.048844,17.573757 C 35.334984,17.029269 35.103004,17.166096 35.103004,18.131644 C 35.103004,18.475116 35.049112,18.621421 34.922592,18.621421 C 34.599449,18.621421 34.353004,18.095587 34.353004,17.406107 C 34.353004,16.802377 34.328783,16.746421 34.067455,16.746421 C 33.882738,16.746421 33.703684,16.878839 33.560388,17.121421 C 33.435133,17.333463 33.233303,17.496421 33.095937,17.496421 C 32.846873,17.496421 32.835327,17.459023 32.80651,16.558921 C 32.793615,16.156102 32.740573,16.051777 32.533608,16.022168 C 32.392315,16.001953 32.172658,16.100392 32.045484,16.240918 C 31.591468,16.742601 31.222489,16.539418 30.986829,15.657948 C 30.803275,14.971378 30.65547,14.899382 30.242257,15.295266 C 29.758034,15.759183 29.572728,15.722426 29.674008,15.182551 C 29.807445,14.471276 29.167455,14.033864 28.853004,14.621421 C 28.509112,15.263989 27.737264,14.517242 27.474672,13.287912 C 27.237645,12.178257 26.866027,12.312263 26.490864,13.642672 C 26.233987,14.553623 26.051383,14.629936 25.644412,13.996421 C 25.489833,13.755796 25.277532,13.446421 25.172628,13.308921 C 24.984098,13.061807 24.979708,13.061722 24.792449,13.301562 C 24.688254,13.435014 24.603004,13.702202 24.603004,13.895312 C 24.603004,14.347078 24.512549,14.337503 24.082073,13.840171 C 23.740567,13.445627 23.724997,13.440912 23.541719,13.676562 C 23.437923,13.810014 23.353004,14.050842 23.353004,14.211734 C 23.353004,14.594408 23.031595,14.708667 22.728004,14.433921 C 22.365482,14.105842 22.123799,14.277937 22.079274,14.895862 C 22.038322,15.464234 22.020844,15.472607 21.389025,15.226559 C 21.16821,15.140572 20.946664,15.111093 20.896699,15.161059 C 20.846734,15.211024 20.931535,15.510598 21.085147,15.826778 C 21.238758,16.142958 21.33665,16.429441 21.302684,16.463407 C 21.268718,16.497372 20.877318,16.321822 20.432905,16.073292 C 19.988492,15.824764 19.535585,15.621421 19.426444,15.621421 C 19.177534,15.621421 19.173319,15.951114 19.416274,16.416959 C 19.518975,16.613879 19.603004,16.796693 19.603004,16.823209 C 19.603004,16.849724 19.291864,16.871421 18.911582,16.871421 C 18.130757,16.871421 17.970469,17.040503 18.19283,17.629606 C 18.322683,17.973618 18.320617,17.975447 17.88234,17.904324 L 17.441128,17.832724 L 17.506709,18.414572 C 17.542783,18.734589 17.522954,18.996421 17.462649,18.996421 C 17.402343,18.996421 17.240504,19.108921 17.103004,19.246421 C 16.907239,19.442186 16.853004,19.663087 16.853004,20.264673 L 16.853004,21.032927 L 16.546474,20.702174 C 16.186808,20.314088 16.179723,20.312559 15.92432,20.567962 C 15.792662,20.699619 15.754044,20.874998 15.807339,21.099212 L 15.886902,21.433921 L 15.519363,21.090171 C 15.05967,20.660231 14.880698,20.657304 14.721085,21.077117 L 14.595355,21.407813 L 14.301078,21.131354 L 14.006798,20.854892 L 13.73389,21.238154 C 13.427957,21.667798 13.290218,21.713844 13.178878,21.423697 z"
         style="opacity:1;fill:#ffffff;fill-opacity:1;stroke:#ffffff;stroke-width:0.0875;stroke-linecap:round;stroke-linejoin:round;stroke-miterlimit:4;stroke-dasharray:none;stroke-dashoffset:0;stroke-opacity:1" />
    </g>
    <path
       style="opacity:1;fill:#ffffff;fill-opacity:1;stroke:#ffffff;stroke-width:0.0761233;stroke-linecap:round;stroke-linejoin:round;stroke-miterlimit:4;stroke-dasharray:none;stroke-dashoffset:0;stroke-opacity:1"
       d="M 6.1283009,35.118558 C 5.92518,34.99262 5.8097715,34.810699 5.7679505,34.550529 C 5.7341137,34.340015 5.6593845,34.052688 5.6018897,33.912026 C 5.5117543,33.691513 5.4732066,33.676319 5.3220865,33.801738 C 5.2256894,33.881741 5.0573699,34.155872 4.9480448,34.410916 C 4.792166,34.77456 4.6923673,34.874633 4.485586,34.874633 C 3.9173396,34.874633 3.5148256,34.168807 3.6230284,33.362092 L 3.6826482,32.917591 L 3.1518066,32.696874 C 1.9179826,32.183865 1.83268,32.073721 2.3984067,31.724082 C 2.6105319,31.592982 2.7840865,31.443751 2.7840865,31.392456 C 2.7840865,31.341162 2.5883408,31.073025 2.3490961,30.796599 C 1.8569948,30.22802 1.8262497,30.094209 2.1254927,29.823398 C 2.3266213,29.641377 2.3608626,29.641255 2.8311491,29.820858 C 3.231325,29.973689 3.3566979,29.983661 3.489742,29.873244 C 3.6976151,29.700723 3.6972225,29.509906 3.4881531,29.105611 C 3.396903,28.929146 3.3601986,28.783785 3.4065925,28.782581 C 3.8380778,28.771397 4.8975229,28.554706 5.0207546,28.452432 C 5.2286527,28.279892 5.2203096,28.227141 4.9136795,27.775297 C 4.6950067,27.453064 4.6736051,27.356809 4.7863546,27.202615 C 4.9685633,26.953433 5.2369426,27.102573 5.7641781,27.745994 C 5.9872824,28.018263 6.2377336,28.241031 6.3207362,28.241031 C 6.4657631,28.241031 6.5024175,28.108782 6.6351037,27.106712 C 6.6662382,26.871611 6.757273,26.613685 6.8374112,26.533546 C 6.95919,26.411768 7.0204975,26.428391 7.2107221,26.634763 C 7.6841318,27.148361 7.9340664,28.491164 7.6804192,29.158305 C 7.5854586,29.408061 7.6007692,29.437254 7.8266858,29.437254 C 7.9654651,29.437254 8.1675823,29.339381 8.2758394,29.219759 C 8.526943,28.942293 8.6985858,28.937842 8.5515341,29.21261 C 8.3762623,29.540112 8.4137422,29.701856 8.7683029,30.148014 C 9.1189638,30.589262 9.070682,30.737186 8.5748953,30.74056 C 8.1591695,30.74339 8.2937295,31.041271 9.0914463,31.884075 C 9.5101245,32.326417 9.8526794,32.765827 9.8526794,32.860542 C 9.8526794,33.138902 9.5360379,33.181547 9.2762215,32.938179 C 8.8445175,32.533803 8.2214656,32.416811 8.2214656,32.740124 C 8.2214656,32.81221 8.3193385,33.06316 8.4389608,33.297793 C 8.7027085,33.815119 8.7181648,34.205294 8.4785536,34.297241 C 8.2105245,34.400096 7.9680697,34.194344 7.7864753,33.709933 C 7.5972197,33.205084 7.3809698,32.917177 7.1910257,32.917177 C 7.0991688,32.917177 7.0378906,33.232651 6.9956357,33.923092 C 6.9617793,34.476345 6.9004141,35.014646 6.859276,35.119315 C 6.7655182,35.357866 6.5138545,35.357607 6.128303,35.118559 L 6.1283009,35.118558 z"
       id="path2445" />
  </g>
</svg>
