<svg xmlns="http://www.w3.org/2000/svg" width="16" height="16" style="isolation:isolate"><defs><clipPath id="a"><path d="M0 0h16v16H0z"/></clipPath></defs><g clip-path="url(#a)"><clipPath id="b"><path fill="#FFF" d="M0 0h16v16H0z"/></clipPath><g clip-path="url(#b)"><circle cx="7.5" cy="7.5" r="6" fill="#E6381F" opacity=".98" style="opacity:.98" vector-effect="non-scaling-stroke"/><path fill="#A60E0E" d="M7.5.013A7.493 7.493 0 0 0 .013 7.5 7.493 7.493 0 0 0 7.5 14.987 7.493 7.493 0 0 0 14.987 7.5 7.493 7.493 0 0 0 7.5.013m0 1.974A5.51 5.51 0 0 1 13.013 7.5 5.51 5.51 0 0 1 7.5 13.013 5.51 5.51 0 0 1 1.987 7.5 5.51 5.51 0 0 1 7.5 1.987"/><path fill="#2B2E39" d="M10.406 4a.5.5 0 0 0-.25.156L7.5 6.813 5.844 5.156a.5.5 0 0 0-.518-.231.5.5 0 0 0-.401.401.5.5 0 0 0 .231.518l2 2a.5.5 0 0 0 .688 0l3-3A.5.5 0 0 0 10.406 4"/></g></g></svg>