<?xml version="1.0" standalone="no"?><!-- Generator: Gravit.io --><svg xmlns="http://www.w3.org/2000/svg" xmlns:xlink="http://www.w3.org/1999/xlink" style="isolation:isolate" viewBox="0 0 16 16" width="16" height="16"><defs><clipPath id="_clipPath_FTEVJ02JqQbaAkGq0zxCClZ8ovSf28LF"><rect width="16" height="16"/></clipPath></defs><g clip-path="url(#_clipPath_FTEVJ02JqQbaAkGq0zxCClZ8ovSf28LF)"><clipPath id="_clipPath_kMUc2qeZPnpfemB5VN1mID2bTbctQK6V"><rect x="0" y="0" width="16" height="16" transform="matrix(1,0,0,1,0,0)" fill="rgb(255,255,255)"/></clipPath><g clip-path="url(#_clipPath_kMUc2qeZPnpfemB5VN1mID2bTbctQK6V)"><g><clipPath id="_clipPath_O3gUc8WX8CfJdh8CMbdOfLtRtmBkIQPk"><rect x="0" y="0" width="16" height="16" transform="matrix(1,0,0,1,0,0)" fill="rgb(255,255,255)"/></clipPath><g clip-path="url(#_clipPath_O3gUc8WX8CfJdh8CMbdOfLtRtmBkIQPk)"><g><g><g><path d=" M 7.5 0.013 C 3.37 0.013 0.013 3.37 0.013 7.5 C 0.013 11.63 3.37 14.987 7.5 14.987 C 11.63 14.987 14.987 11.63 14.987 7.5 C 14.987 3.37 11.63 0.013 7.5 0.013 Z  M 7.5 1.987 C 10.549 1.987 13.013 4.451 13.013 7.5 C 13.013 10.549 10.549 13.013 7.5 13.013 C 4.451 13.013 1.987 10.549 1.987 7.5 C 1.987 4.451 4.451 1.987 7.5 1.987 Z " fill="rgb(180,180,0)"/><g style="opacity:0.99;"><g style="opacity:0.99;"><g opacity="0.99"><circle vector-effect="non-scaling-stroke" cx="7.5" cy="7.5" r="6" fill="rgb(220,220,0)"/></g></g></g><path d=" M 10.406 4 C 10.309 4.026 10.222 4.08 10.156 4.156 L 7.5 6.813 L 5.844 5.156 C 5.736 4.98 5.53 4.888 5.326 4.925 C 5.123 4.963 4.963 5.123 4.925 5.326 C 4.888 5.53 4.98 5.736 5.156 5.844 L 7.156 7.844 C 7.349 8.026 7.651 8.026 7.844 7.844 L 10.844 4.844 C 10.995 4.689 11.03 4.455 10.931 4.263 C 10.831 4.071 10.62 3.965 10.406 4 Z " fill="rgb(43,46,57)"/></g></g></g></g></g></g></g></svg>
