<svg xmlns="http://www.w3.org/2000/svg" width="48" height="48"><g style="display:inline"><path d="m24.01 2.885 11.91 18.223c7.631 11.674-.394 24.297-11.92 24.297S4.439 32.778 12.077 21.11z" style="fill:#4c90e8;fill-opacity:1;fill-rule:evenodd;stroke:#094491;stroke-width:3.19036889;stroke-miterlimit:4;stroke-dasharray:none;stroke-opacity:1"/></g><g style="display:inline"><path d="M28.25 24.077c-6.514-2.656-9.932 4.13-8.845 7.3 2.364 6.897 11.278 8.624 17.862-2.865 0 0 .07 1.386.14 2.046.883 8.377-6.163 13.71-13.303 13.605-7.14-.104-9.32-2.877-11.425-6.069-3.413-5.178-2.561-13.615 2.028-17.56 5.238-4.33 11.004-2.019 13.542 3.543" style="display:inline;fill:#094491;fill-opacity:1;fill-rule:evenodd;stroke-width:.43658349;stroke-miterlimit:4;stroke-dasharray:none;stroke-opacity:1"/></g><g style="display:inline"><path d="M24.158 21.569c-7.295.177-8.68 8.584-6.66 12.185 2.81 5.006 7.073 5.969 12.906 4.12-3.33 3.622-10.166 4.58-14.81-.592-3.194-3.56-3.473-8.526-1.256-12.674 2.217-4.149 6.638-5.302 9.82-3.04" style="fill:#83b8f9;fill-opacity:1;fill-rule:evenodd;stroke:none;stroke-width:1.07657671"/></g></svg>