<svg xmlns="http://www.w3.org/2000/svg" width="48" height="48"><g style="display:inline"><path d="M38.395 28.81c1.34 9.393-5.76 17.573-15.107 17.573-5.9 0-10.906-3.259-13.461-8.024-1.489-2.777-2.047-6.041-1.66-9.518Z" style="display:inline;fill:#16c816;fill-opacity:1;fill-rule:evenodd;stroke:#129b00;stroke-width:3.27999091;stroke-miterlimit:4;stroke-dasharray:none;stroke-opacity:1" transform="matrix(.90727 0 0 .89973 2.938 2.518)"/><path d="M24.074 4.752 35.137 21.68c.831 1.271 1.562 2.542 1.953 3.844l-26.065.033c.399-1.283 1.127-2.593 1.965-3.874z" style="display:inline;fill:#69f;fill-opacity:1;fill-rule:evenodd;stroke:#36c;stroke-width:2.96343851;stroke-miterlimit:4;stroke-dasharray:none;stroke-opacity:1"/><path d="M36.88 27.238c1.236 10.956-5.213 17.585-13.695 17.513-8.483-.072-14.972-7.64-13.536-17.531Z" style="display:inline;fill:#16c816;fill-opacity:1;fill-rule:evenodd;stroke:none;stroke-width:3.27999091;stroke-miterlimit:4;stroke-dasharray:none;stroke-opacity:1" transform="matrix(.90727 0 0 .89973 2.938 2.518)"/><path d="m24.011 7.314 9.501 14.491c.833 1.27 2.523 3.933 2.921 5.25l-24.751-.03c.398-1.282 2.042-3.742 2.87-5.03z" style="display:inline;fill:#69f;fill-opacity:1;fill-rule:evenodd;stroke:none;stroke-width:2.96343851;stroke-miterlimit:4;stroke-dasharray:none;stroke-opacity:1"/></g><g style="display:inline"><path d="M28.004 23.535h-8.133l2.033-3.521 2.033-3.522 2.034 3.522z" style="opacity:1;fill:#005000;fill-opacity:1;fill-rule:evenodd;stroke:none;stroke-width:3.54330707;stroke-miterlimit:4;stroke-dasharray:none;stroke-dashoffset:0;stroke-opacity:1" transform="matrix(-1.84425 0 0 -.99379 68.147 57.378)"/><path d="M19.75 21.788h8.3v4.2h-8.3z" style="display:inline;opacity:1;fill:#0e2960;fill-opacity:1;fill-rule:evenodd;stroke:none;stroke-width:3.54330707;stroke-miterlimit:4;stroke-dasharray:none;stroke-dashoffset:0;stroke-opacity:1"/><path d="M-28.05-32.269h8.3v4.2h-8.3z" style="display:inline;opacity:1;fill:#005000;fill-opacity:1;fill-rule:evenodd;stroke:none;stroke-width:3.54330707;stroke-miterlimit:4;stroke-dasharray:none;stroke-dashoffset:0;stroke-opacity:1" transform="scale(-1)"/><path d="M28.004 23.535h-8.133l2.033-3.521 2.033-3.522 2.034 3.522z" style="display:inline;opacity:1;fill:#0e2960;fill-opacity:1;fill-rule:evenodd;stroke:none;stroke-width:3.54330707;stroke-miterlimit:4;stroke-dasharray:none;stroke-dashoffset:0;stroke-opacity:1" transform="matrix(1.84425 0 0 .99379 -20.147 -3.256)"/></g></svg>