<?xml version="1.0" encoding="UTF-8" standalone="no"?>
<!-- Created with Inkscape (http://www.inkscape.org/) -->
<svg
   xmlns:dc="http://purl.org/dc/elements/1.1/"
   xmlns:cc="http://creativecommons.org/ns#"
   xmlns:rdf="http://www.w3.org/1999/02/22-rdf-syntax-ns#"
   xmlns:svg="http://www.w3.org/2000/svg"
   xmlns="http://www.w3.org/2000/svg"
   xmlns:sodipodi="http://sodipodi.sourceforge.net/DTD/sodipodi-0.dtd"
   xmlns:inkscape="http://www.inkscape.org/namespaces/inkscape"
   width="744.09448819"
   height="1052.3622047"
   id="svg3001"
   sodipodi:version="0.32"
   inkscape:version="0.46"
   sodipodi:docname="all.svg"
   inkscape:output_extension="org.inkscape.output.svg.inkscape">
  <defs
     id="defs3003">
    <inkscape:perspective
       sodipodi:type="inkscape:persp3d"
       inkscape:vp_x="0 : 526.18109 : 1"
       inkscape:vp_y="0 : 1000 : 0"
       inkscape:vp_z="744.09448 : 526.18109 : 1"
       inkscape:persp3d-origin="372.04724 : 350.78739 : 1"
       id="perspective3009" />
  </defs>
  <sodipodi:namedview
     id="base"
     pagecolor="#ffffff"
     bordercolor="#666666"
     borderopacity="1.0"
     gridtolerance="10000"
     guidetolerance="10"
     objecttolerance="10"
     inkscape:pageopacity="0.0"
     inkscape:pageshadow="2"
     inkscape:zoom="0.35"
     inkscape:cx="375"
     inkscape:cy="520"
     inkscape:document-units="px"
     inkscape:current-layer="layer1"
     showgrid="false"
     inkscape:window-width="640"
     inkscape:window-height="711"
     inkscape:window-x="1594"
     inkscape:window-y="77" />
  <metadata
     id="metadata3006">
    <rdf:RDF>
      <cc:Work
         rdf:about="">
        <dc:format>image/svg+xml</dc:format>
        <dc:type
           rdf:resource="http://purl.org/dc/dcmitype/StillImage" />
      </cc:Work>
    </rdf:RDF>
  </metadata>
  <g
     inkscape:label="Layer 1"
     inkscape:groupmode="layer"
     id="layer1">
    <g
       id="g3011"
       transform="matrix(7.4849593,0,0,7.4849593,52.997244,360.31942)"
       inkscape:export-filename="/home/andrew/g3060.png"
       inkscape:export-xdpi="2.4250078"
       inkscape:export-ydpi="2.4250078">
      <path
         sodipodi:nodetypes="ccccc"
         id="path2069"
         d="M 23.942923,0.9561338 L 37.330543,18.266721 C 46.998995,29.84687 41.49692,43.923891 26.7742,45.000491 C 6.0597413,45.582655 6.5086231,27.37483 11.255313,18.609381 L 23.942923,0.9561338 z"
         style="fill:#ff0000;fill-opacity:1;fill-rule:evenodd;stroke:none;stroke-width:0.07523891px;stroke-linecap:butt;stroke-linejoin:miter;stroke-opacity:1" />
      <path
         sodipodi:nodetypes="ccccc"
         id="path2071"
         d="M 23.996861,3.5433428 L 36.057351,19.151045 C 44.769741,29.58253 39.419346,42.414092 26.125181,43.508521 C 7.3917365,44.015286 7.4275065,28.119221 12.17284,20.333442 L 23.996861,3.5433428 z"
         style="fill:none;fill-opacity:1;fill-rule:evenodd;stroke:#ffffff;stroke-width:1.1000706;stroke-linecap:butt;stroke-linejoin:miter;stroke-miterlimit:4;stroke-dasharray:none;stroke-opacity:0.36612022" />
      <text
         sodipodi:linespacing="125%"
         transform="scale(1.4928735,0.6698491)"
         id="text2767"
         y="59.560848"
         x="5.0072942"
         style="font-size:55.97062302px;font-style:normal;font-variant:normal;font-weight:normal;font-stretch:normal;text-align:start;line-height:125%;writing-mode:lr-tb;text-anchor:start;opacity:1;fill:#ff7878;fill-opacity:1;stroke:#000000;stroke-width:0.69999999;stroke-linecap:round;stroke-linejoin:round;stroke-miterlimit:4;stroke-dasharray:none;stroke-opacity:1;font-family:Bitstream Vera Sans"
         xml:space="preserve"><tspan
           style="font-size:55.97062302px;font-style:normal;font-variant:normal;font-weight:normal;font-stretch:normal;text-align:start;line-height:125%;writing-mode:lr-tb;text-anchor:start;stroke-width:0.69999999;stroke-linecap:round;stroke-linejoin:round;stroke-miterlimit:4;stroke-dasharray:none;font-family:Bitstream Vera Sans"
           y="59.560848"
           x="5.0072942"
           id="tspan2769"
           sodipodi:role="line">!</tspan></text>
    </g>
    <g
       id="g3022"
       transform="matrix(7.874057,0,0,7.874057,232.39499,356.39427)"
       inkscape:export-filename="/home/andrew/g3060.png"
       inkscape:export-xdpi="2.4250078"
       inkscape:export-ydpi="2.4250078">
      <path
         sodipodi:nodetypes="ccccc"
         id="path3030"
         d="M 23.854535,1.0445221 L 37.242155,18.355109 C 46.910607,29.935258 41.408532,44.012279 26.685812,45.088879 C 5.971353,45.671043 6.4202348,27.463218 11.166925,18.697769 L 23.854535,1.0445221 z"
         style="fill:#b3b3b3;fill-opacity:1;fill-rule:evenodd;stroke:none;stroke-width:0.07523891px;stroke-linecap:butt;stroke-linejoin:miter;stroke-opacity:1" />
      <path
         sodipodi:nodetypes="ccccc"
         id="path3032"
         d="M 23.996861,3.5433428 L 36.057351,19.151045 C 44.769741,29.58253 39.419346,42.414092 26.125181,43.508521 C 7.3917365,44.015286 7.4275065,28.119221 12.17284,20.333442 L 23.996861,3.5433428 z"
         style="fill:none;fill-opacity:1;fill-rule:evenodd;stroke:#ffffff;stroke-width:1.1000706;stroke-linecap:butt;stroke-linejoin:miter;stroke-miterlimit:4;stroke-dasharray:none;stroke-opacity:0.36612022" />
      <g
         transform="matrix(0.9616363,0,0,0.855461,0.9207282,3.9296533)"
         id="g3590">
        <rect
           style="fill:#cfcfcf;fill-opacity:1;stroke:#000000;stroke-width:0.69999999;stroke-linecap:round;stroke-linejoin:round;stroke-miterlimit:4;stroke-dasharray:none;stroke-opacity:1"
           id="rect4415"
           width="7.7589664"
           height="14.866735"
           x="14.548919"
           y="19.754131" />
        <rect
           style="fill:#cfcfcf;fill-opacity:1;stroke:#000000;stroke-width:0.69999999;stroke-linecap:round;stroke-linejoin:round;stroke-miterlimit:4;stroke-dasharray:none;stroke-opacity:1"
           id="rect4417"
           width="7.7589664"
           height="14.866735"
           x="25.692116"
           y="19.754131" />
      </g>
    </g>
    <g
       id="g3037"
       transform="matrix(8.0037561,0,0,8.0037561,-22.312009,464.83023)"
       inkscape:export-filename="/home/andrew/g3060.png"
       inkscape:export-xdpi="2.4250078"
       inkscape:export-ydpi="2.4250078">
      <path
         sodipodi:nodetypes="ccccc"
         id="path3043"
         d="M 23.854535,1.0445221 L 37.242155,18.355109 C 46.910607,29.935258 41.408532,44.012279 26.685812,45.088879 C 5.971353,45.671043 6.4202348,27.463218 11.166925,18.697769 L 23.854535,1.0445221 z"
         style="fill:#d0b31d;fill-opacity:1;fill-rule:evenodd;stroke:none;stroke-width:0.07523891px;stroke-linecap:butt;stroke-linejoin:miter;stroke-opacity:1" />
      <path
         sodipodi:nodetypes="ccccc"
         id="path3045"
         d="M 23.996861,3.5433428 L 36.057351,19.151045 C 44.769741,29.58253 39.419346,42.414092 26.125181,43.508521 C 7.3917365,44.015286 7.4275065,28.119221 12.17284,20.333442 L 23.996861,3.5433428 z"
         style="fill:none;fill-opacity:1;fill-rule:evenodd;stroke:#ffffff;stroke-width:1.1000706;stroke-linecap:butt;stroke-linejoin:miter;stroke-miterlimit:4;stroke-dasharray:none;stroke-opacity:0.36612022" />
      <path
         id="rect2634"
         d="M 24.821384,15.512309 C 22.21433,17.952223 19.604921,20.381297 16.997867,22.821211 C 18.304685,22.818964 19.61477,22.823457 20.921589,22.821211 C 20.921589,25.684801 20.921589,28.548391 20.921589,31.411981 C 19.61477,31.409734 18.304685,31.414228 16.997867,31.411981 C 19.604921,33.851895 22.21433,36.280969 24.821384,38.720883 C 27.457552,36.289986 30.104432,33.865368 32.740602,31.43447 C 31.322226,31.432031 29.900305,31.43691 28.481929,31.43447 C 28.481929,28.555887 28.481929,25.677306 28.481929,22.798722 C 29.900305,22.796282 31.322226,22.80116 32.740602,22.798722 C 30.104432,20.367823 27.457552,17.943206 24.821384,15.512309 z"
         style="fill:#e1cf6f;fill-opacity:1;stroke:#000000;stroke-width:0.56882578;stroke-linecap:round;stroke-linejoin:round;marker-end:none;stroke-miterlimit:4;stroke-dasharray:none;stroke-dashoffset:0;stroke-opacity:1" />
    </g>
    <g
       id="g3048"
       transform="matrix(7.6146585,0,0,7.6146585,318.27879,494.48113)"
       inkscape:export-filename="/home/andrew/g3060.png"
       inkscape:export-xdpi="2.4250078"
       inkscape:export-ydpi="2.4250078">
      <path
         sodipodi:nodetypes="ccccc"
         id="path3054"
         d="M 23.942923,0.9561338 L 37.330543,18.266721 C 46.998995,29.84687 41.49692,43.923891 26.7742,45.000491 C 6.0597413,45.582655 6.5086231,27.37483 11.255313,18.609381 L 23.942923,0.9561338 z"
         style="fill:#5599ff;fill-opacity:1;fill-rule:evenodd;stroke:none;stroke-width:0.07523891px;stroke-linecap:butt;stroke-linejoin:miter;stroke-opacity:1" />
      <path
         sodipodi:nodetypes="ccccc"
         id="path3056"
         d="M 23.996861,3.5433428 L 36.057351,19.151045 C 44.769741,29.58253 39.419346,42.414092 26.125181,43.508521 C 7.3917365,44.015286 7.4275065,28.119221 12.17284,20.333442 L 23.996861,3.5433428 z"
         style="fill:none;fill-opacity:1;fill-rule:evenodd;stroke:#ffffff;stroke-width:1.1000706;stroke-linecap:butt;stroke-linejoin:miter;stroke-miterlimit:4;stroke-dasharray:none;stroke-opacity:0.36612022" />
      <path
         id="path3058"
         d="M 24.3125,14.9375 C 20.869248,18.315409 17.412003,21.684591 13.96875,25.0625 C 15.821373,25.065889 17.678627,25.059111 19.53125,25.0625 C 19.53125,29.0625 19.53125,33.0625 19.53125,37.0625 C 22.822917,37.0625 26.114582,37.0625 29.40625,37.0625 C 29.40625,33.072917 29.40625,29.083333 29.40625,25.09375 C 31.113161,25.096872 32.824339,25.090627 34.53125,25.09375 C 31.126025,21.703313 27.717725,18.327937 24.3125,14.9375 z"
         style="fill:#93beff;fill-opacity:1;stroke:#000000;stroke-width:0.69999999;stroke-linecap:round;stroke-linejoin:round;stroke-miterlimit:4;stroke-dasharray:none;stroke-opacity:1" />
    </g>
    <g
       id="g3060"
       transform="matrix(8.2631545,0,0,8.2631545,133.25792,542.4325)"
       inkscape:export-xdpi="2.4250078"
       inkscape:export-ydpi="2.4250078">
      <path
         sodipodi:nodetypes="ccccc"
         id="path3066"
         d="M 23.942923,0.9561338 L 37.330543,18.266721 C 46.998995,29.84687 41.49692,43.923891 26.7742,45.000491 C 6.0597413,45.582655 6.5086231,27.37483 11.255313,18.609381 L 23.942923,0.9561338 z"
         style="fill:#8dd35f;fill-opacity:1;fill-rule:evenodd;stroke:none;stroke-width:0.07523891px;stroke-linecap:butt;stroke-linejoin:miter;stroke-opacity:1" />
      <path
         sodipodi:nodetypes="ccccc"
         id="path3068"
         d="M 23.996861,3.5433428 L 36.057351,19.151045 C 44.769741,29.58253 39.419346,42.414092 26.125181,43.508521 C 7.3917365,44.015286 7.4275065,28.119221 12.17284,20.333442 L 23.996861,3.5433428 z"
         style="fill:none;fill-opacity:1;fill-rule:evenodd;stroke:#ffffff;stroke-width:1.1000706;stroke-linecap:butt;stroke-linejoin:miter;stroke-miterlimit:4;stroke-dasharray:none;stroke-opacity:0.36612022" />
      <path
         id="path3070"
         d="M 19.34375,17.5625 C 19.34375,21.552083 19.34375,25.541668 19.34375,29.53125 C 17.636839,29.528128 15.925661,29.534372 14.21875,29.53125 C 17.623975,32.921687 21.032275,36.297063 24.4375,39.6875 C 27.880752,36.309591 31.337996,32.94041 34.78125,29.5625 C 32.928627,29.559111 31.071373,29.565889 29.21875,29.5625 C 29.21875,25.5625 29.21875,21.562501 29.21875,17.5625 C 25.927083,17.5625 22.635418,17.562501 19.34375,17.5625 z"
         style="fill:#b7e399;fill-opacity:1;stroke:#000000;stroke-width:0.69999999;stroke-linecap:round;stroke-linejoin:round;marker-end:none;stroke-miterlimit:4;stroke-dasharray:none;stroke-dashoffset:0;stroke-opacity:1" />
    </g>
  </g>
</svg>
