<svg xmlns="http://www.w3.org/2000/svg" width="48" height="48"><g style="display:inline"><path d="m23.835 3.782 5.55 8.492c3.555 5.44-.184 11.323-5.554 11.323s-9.115-5.885-5.556-11.321z" style="display:inline;fill:#e6381f;fill-opacity:1;fill-rule:evenodd;stroke:#a60e0e;stroke-width:1.48663402;stroke-miterlimit:4;stroke-dasharray:none;stroke-opacity:1"/><path d="M22.276 10.195h3.01l-.491 7.178h-1.919zm.119 7.955h2.759v2.76h-2.76z" style="display:inline;opacity:1;fill:#630000;fill-opacity:1;fill-rule:evenodd;stroke:none;stroke-width:3.54330707;stroke-miterlimit:4;stroke-dasharray:none;stroke-dashoffset:0;stroke-opacity:1"/></g><g style="display:inline"><path d="m43.763.181 11.064 16.928c7.087 10.845-.366 22.571-11.071 22.571S25.586 27.95 32.68 17.113z" style="display:inline;fill:#dcdc00;fill-opacity:1;fill-rule:evenodd;stroke:#b4b400;stroke-width:2.96343851;stroke-miterlimit:4;stroke-dasharray:none;stroke-opacity:1" transform="translate(10.301 13.764)scale(.50041)"/><path d="M35.689 25.668h16v4h-16zm0-6.365h16v4h-16z" style="display:inline;opacity:1;fill:#6a6a00;fill-opacity:1;fill-rule:evenodd;stroke:none;stroke-width:2.03118205;stroke-miterlimit:4;stroke-dasharray:none;stroke-dashoffset:0;stroke-opacity:1" transform="translate(10.301 13.764)scale(.50041)"/><path d="m23.884 17.006.019-.01.018-.011v.042l-.018-.01z" style="display:inline;opacity:1;fill:#6a6a00;fill-opacity:1;fill-rule:evenodd;stroke:none;stroke-width:1.97536206;stroke-miterlimit:4;stroke-dasharray:none;stroke-dashoffset:0;stroke-opacity:1" transform="scale(105.5376 60.93216)rotate(90 20.432 -3.121)"/><path d="m23.884 17.006.019-.01.018-.011v.042l-.018-.01z" style="display:inline;opacity:1;fill:#6a6a00;fill-opacity:1;fill-rule:evenodd;stroke:none;stroke-width:1.97536206;stroke-miterlimit:4;stroke-dasharray:none;stroke-dashoffset:0;stroke-opacity:1" transform="scale(105.5376 60.93216)rotate(-90 3.852 20.554)"/></g><g style="display:inline"><path d="M-6.353 21.262 4.71 38.19c7.088 10.845-.366 22.57-11.07 22.57s-18.17-11.73-11.077-22.567z" style="display:inline;fill:#69f;fill-opacity:1;fill-rule:evenodd;stroke:#36c;stroke-width:2.96343851;stroke-miterlimit:4;stroke-dasharray:none;stroke-opacity:1" transform="translate(18.969 3.195)scale(.50387)"/><path d="M-10.667 49.51h8.5v4.5h-8.5z" style="display:inline;opacity:1;fill:#0f3171;fill-opacity:1;fill-rule:evenodd;stroke:none;stroke-width:3.54330707;stroke-miterlimit:4;stroke-dasharray:none;stroke-dashoffset:0;stroke-opacity:1" transform="translate(18.969 3.195)scale(.50387)"/><path d="M28.004 23.535h-8.133l2.033-3.521 2.033-3.522 2.034 3.522z" style="display:inline;opacity:1;fill:#0f3171;fill-opacity:1;fill-rule:evenodd;stroke:none;stroke-width:3.54330707;stroke-miterlimit:4;stroke-dasharray:none;stroke-dashoffset:0;stroke-opacity:1" transform="matrix(.9912 0 0 .56333 -8.03 10.88)"/><path d="M-10.685 43.412h8.5v4.5h-8.5z" style="display:inline;opacity:1;fill:#0f3171;fill-opacity:1;fill-rule:evenodd;stroke:none;stroke-width:3.54330707;stroke-miterlimit:4;stroke-dasharray:none;stroke-dashoffset:0;stroke-opacity:1" transform="translate(18.969 3.195)scale(.50387)"/></g><g style="display:inline"><path d="M-2.95.784 2.63 9.32c3.574 5.47-.185 11.383-5.584 11.383s-9.164-5.916-5.586-11.381z" style="display:inline;fill:#16c816;fill-opacity:1;fill-rule:evenodd;stroke:#129b00;stroke-width:1.49452055;stroke-miterlimit:4;stroke-dasharray:none;stroke-opacity:1" transform="translate(26.889 23.508)scale(.99398)"/><path d="M.895-10.455h4.277v2.269H.895z" style="display:inline;opacity:1;fill:#005000;fill-opacity:1;fill-rule:evenodd;stroke:none;stroke-width:3.54330707;stroke-miterlimit:4;stroke-dasharray:none;stroke-dashoffset:0;stroke-opacity:1" transform="rotate(180 13.444 11.754)scale(.99398)"/><path d="M28.004 23.535h-8.133l2.033-3.521 2.033-3.522 2.034 3.522z" style="display:inline;opacity:1;fill:#005000;fill-opacity:1;fill-rule:evenodd;stroke:none;stroke-width:3.54330707;stroke-miterlimit:4;stroke-dasharray:none;stroke-dashoffset:0;stroke-opacity:1" transform="matrix(-.98613 0 0 -.5551 47.523 51.017)"/><path d="M.885-13.625h4.277v2.269H.885z" style="display:inline;opacity:1;fill:#005000;fill-opacity:1;fill-rule:evenodd;stroke:none;stroke-width:3.54330707;stroke-miterlimit:4;stroke-dasharray:none;stroke-dashoffset:0;stroke-opacity:1" transform="rotate(180 13.444 11.754)scale(.99398)"/></g></svg>