<svg xmlns="http://www.w3.org/2000/svg" width="48" height="48"><defs><filter id="a" width="1.2" height="1.2" x="-.05" y="-.15" style="color-interpolation-filters:sRGB"><feFlood flood-color="#32336C" flood-opacity=".502" result="flood"/><feComposite in="flood" in2="SourceGraphic" k1="8.14" k2="4.93" k3="5.59" k4="-7.24" operator="in" result="composite1"/><feGaussianBlur in="composite" result="blur" stdDeviation=".2"/><feOffset dx=".3" dy=".3" flood-opacity=".5" result="offset"/><feComposite in="SourceGraphic" in2="offset" result="composite2"/></filter></defs><g style="display:inline"><path d="M23.296 2.482 35.49 21.297c7.812 12.054-.403 25.086-12.202 25.086S3.26 33.346 11.08 21.301Z" style="fill:#ccc;fill-opacity:1;fill-rule:evenodd;stroke:#999;stroke-width:3.27999091;stroke-miterlimit:4;stroke-dasharray:none;stroke-opacity:1;filter:url(#a)" transform="matrix(.90727 0 0 .89973 2.938 2.518)"/></g><path d="M15.71 22.157c.119.2.418 8.848.341 8.726-.05-.116 9.03-.318 9.052-.339-.047.004-2.88-2.667-2.855-2.63 2.723-2.45 6.566-1.74 6.843 3.1.277 4.838-7.57 6.978-8.065.917l-4.575-.076c.742 4.962 4.54 7.477 7.55 7.485s8.823-1.59 8.795-8.313c-.027-6.723-4.32-8.932-8.343-8.888s-5.694 2.521-5.857 2.536c0 0-2.784-2.424-2.887-2.518" style="fill:#666;fill-opacity:1;stroke:none;stroke-width:.48776338;stroke-linecap:round;stroke-linejoin:round;stroke-miterlimit:4;stroke-dasharray:none;stroke-opacity:1"/></svg>