<svg xmlns="http://www.w3.org/2000/svg" width="48" height="48"><g style="display:inline"><path d="M19.334 31.419a.906 1.144 0 0 0 .906-1.144v-4.957c0-12.21 12.084-12.191 12.084 0v4.957a.906 1.144 0 0 0 .906 1.144H44.7a.906 1.144 0 0 0 .906-1.154c-.007-2.04-.045-3.841 0-5.08 0-14.355-10.283-23.506-19.39-23.506-9.105 0-19.257 9.15-19.257 23.515.046 1.22.015 3.146 0 5.071a.906 1.144 0 0 0 .907 1.154z" style="stroke-width:.084844;fill:red;fill-opacity:1"/><path d="M6.949 35.613v7.635a2.719 3.432 0 0 0 2.719 3.431h7.854a2.719 3.432 0 0 0 2.718-3.431v-7.626a.906 1.144 0 0 0-.906-1.143H7.855a.898 1.133 0 0 0-.906 1.134m26.276-1.144h11.484a.906 1.144 0 0 1 .906 1.144v7.625a2.719 3.432 0 0 1-2.719 3.432h-7.854a2.719 3.432 0 0 1-2.718-3.432v-7.625a.898 1.133 0 0 1 .9-1.144" style="stroke-width:.084844;fill:#515151;fill-opacity:.54381627"/></g></svg>