<svg xmlns="http://www.w3.org/2000/svg" width="48" height="48"><g style="display:inline"><path d="M19.334 31.419a.906 1.144 0 0 0 .906-1.144v-4.957c0-12.21 12.084-12.191 12.084 0v4.957a.906 1.144 0 0 0 .906 1.144H44.7a.906 1.144 0 0 0 .906-1.154c-.007-2.04-.045-3.841 0-5.08 0-14.355-10.283-23.506-19.39-23.506-9.105 0-19.257 9.15-19.257 23.515.046 1.22.015 3.146 0 5.071a.906 1.144 0 0 0 .907 1.154z" style="stroke-width:.084844;fill:red;fill-opacity:1"/><path d="M6.949 35.613v7.635a2.719 3.432 0 0 0 2.719 3.431h7.854a2.719 3.432 0 0 0 2.718-3.431v-7.626a.906 1.144 0 0 0-.906-1.143H7.855a.898 1.133 0 0 0-.906 1.134m26.276-1.144h11.484a.906 1.144 0 0 1 .906 1.144v7.625a2.719 3.432 0 0 1-2.719 3.432h-7.854a2.719 3.432 0 0 1-2.718-3.432v-7.625a.898 1.133 0 0 1 .9-1.144" style="stroke-width:.084844;fill:#515151;fill-opacity:.54381627"/></g><g style="display:inline"><path d="M18.097 17.13h30.976v30.976H18.097z" style="opacity:1;fill:none;fill-opacity:1;stroke:none;stroke-width:7.09866;stroke-linecap:round;stroke-linejoin:round;stroke-miterlimit:4;stroke-dasharray:none;stroke-opacity:1"/><rect width="15.488" height="13.552" x="21.324" y="31.327" ry="1.958" style="fill:#000;fill-opacity:1;stroke:none;stroke-width:5.16267;stroke-linecap:round;stroke-linejoin:round;stroke-miterlimit:4;stroke-dasharray:none;stroke-opacity:1"/><rect width="11.616" height="9.68" x="23.26" y="33.263" ry="0" style="fill:#fff;fill-opacity:1;stroke:none;stroke-width:5.16267;stroke-linecap:round;stroke-linejoin:round;stroke-miterlimit:4;stroke-dasharray:none;stroke-opacity:1"/><path d="M25.196 36.167h7.744m-7.744 3.873h7.744" style="fill:none;fill-rule:evenodd;stroke:#000;stroke-width:1.936;stroke-linecap:butt;stroke-linejoin:miter;stroke-miterlimit:4;stroke-dasharray:none;stroke-opacity:1"/><rect width="15.488" height="13.552" x="30.359" y="20.357" ry="2.045" style="fill:#000;fill-opacity:1;stroke:none;stroke-width:5.16267;stroke-linecap:round;stroke-linejoin:round;stroke-miterlimit:4;stroke-dasharray:none;stroke-opacity:1"/><rect width="11.616" height="9.68" x="32.295" y="22.293" ry="0" style="fill:#fff;fill-opacity:1;stroke:none;stroke-width:5.16267;stroke-linecap:round;stroke-linejoin:round;stroke-miterlimit:4;stroke-dasharray:none;stroke-opacity:1"/><path d="M34.23 25.197h7.745m-7.745 3.872h7.745" style="fill:none;fill-rule:evenodd;stroke:#000;stroke-width:1.936;stroke-linecap:butt;stroke-linejoin:miter;stroke-miterlimit:4;stroke-dasharray:none;stroke-opacity:1"/></g></svg>