<svg xmlns="http://www.w3.org/2000/svg" width="48" height="48"><g style="display:inline"><path d="M23.296 2.482 35.49 21.297c7.812 12.054-.403 25.086-12.202 25.086S3.26 33.346 11.08 21.301Z" style="fill:#dcdc00;fill-opacity:1;fill-rule:evenodd;stroke:#b4b400;stroke-width:3.27999091;stroke-miterlimit:4;stroke-dasharray:none;stroke-opacity:1" transform="matrix(.90727 0 0 .89973 2.938 2.518)"/></g><g style="display:inline"><path d="M16 30.239h16v4H16zm0-6.366h16v4H16z" style="display:inline;opacity:1;fill:#6a6a00;fill-opacity:1;fill-rule:evenodd;stroke:none;stroke-width:2.03118205;stroke-miterlimit:4;stroke-dasharray:none;stroke-dashoffset:0;stroke-opacity:1"/><path d="m23.884 17.006.019-.01.018-.011v.042l-.018-.01z" style="display:inline;opacity:1;fill:#6a6a00;fill-opacity:1;fill-rule:evenodd;stroke:none;stroke-width:1.97536206;stroke-miterlimit:4;stroke-dasharray:none;stroke-dashoffset:0;stroke-opacity:1" transform="matrix(0 121.76383 -210.90115 0 3610.628 -2890.673)"/><path d="m23.884 17.006.019-.01.018-.011v.042l-.018-.01z" style="display:inline;opacity:1;fill:#6a6a00;fill-opacity:1;fill-rule:evenodd;stroke:none;stroke-width:1.97536206;stroke-miterlimit:4;stroke-dasharray:none;stroke-dashoffset:0;stroke-opacity:1" transform="matrix(0 -121.76383 210.90115 0 -3562.59 2948.83)"/></g></svg>