<svg xmlns="http://www.w3.org/2000/svg" width="128" height="128"><path d="M79.742 929.52c-14.206 13.937-28.471 27.838-42.678 41.775 7.644.014 15.307-.014 22.951 0v49.512h40.744v-49.383c7.043.013 14.103-.013 21.146 0-14.05-13.989-28.113-27.916-42.163-41.904" style="opacity:1;fill:#4c90e8;fill-opacity:1;stroke:#000;stroke-width:4.088;stroke-linecap:round;stroke-linejoin:round;stroke-miterlimit:4;stroke-dasharray:none;stroke-opacity:1" transform="translate(0 -924.362)"/><path d="M48.981 1047.56c-14.207-13.937-28.471-27.838-42.678-41.775 7.644-.014 15.307.014 22.95 0v-49.511h40.745v49.382c7.042-.014 14.103.013 21.145 0-14.05 13.989-28.112 27.916-42.162 41.905" style="opacity:1;fill:#16c816;fill-opacity:1;stroke:#000;stroke-width:4.088;stroke-linecap:round;stroke-linejoin:round;stroke-miterlimit:4;stroke-dasharray:none;stroke-opacity:1" transform="translate(0 -924.362)"/></svg>